<?xml version="1.0" encoding="utf-8" ?><svg xmlns="http://www.w3.org/2000/svg" xmlns:xlink="http://www.w3.org/1999/xlink" width="400" height="200" viewBox="0 0 400 200"><path fill="#9BC1BC" transform="scale(0.195312 0.195312)" d="M0 0L0 1024L2048 1024L2048 0L0 0Z"/><path fill="#F4F1BB" transform="scale(0.195312 0.195312)" d="M949.404 119.83C939.946 120.603 934.857 120.423 925.424 118.144C942.07 114.05 954.414 111.266 969.577 102.729C963.914 103.146 957.864 103.474 952.261 104.187C990.442 80.7457 996.998 68.0172 1007.82 24.0229C1009.08 18.8925 1017.58 4.59772 1020.67 0C1025.68 6.82898 1030.24 13.2395 1033.15 21.1668C1041.04 42.6718 1042.56 68.0599 1060.22 84.7133C1067.41 91.4918 1077.78 97.6023 1086.32 102.954L1070.22 103.025C1083.09 110.141 1091.01 112.37 1105.13 116.319C1107.17 116.891 1110.76 117.472 1111.59 118.976C1105.49 122.233 1090.46 119.013 1083.91 117.365C1100.4 128.303 1113.45 131.331 1129.96 143.264C1108.89 138.343 1102.35 136.471 1082.52 128.034C1092.01 135.597 1100.97 142.154 1110.81 149.241C1101.51 148.495 1097.43 147.232 1087.82 147.567L1088.16 147.82C1084.32 147.867 1073.79 147.665 1070.83 148.788L1073.79 151.826C1072.4 153.543 1071.7 153.187 1069.09 153.725C1074.02 166.154 1120.31 182.865 1134.14 194.432C1118.88 189.83 1102.53 182.818 1088.48 178.753C1111.89 196.302 1131.73 188.742 1157.48 203.948C1142.36 204.445 1135.88 203.004 1120.81 200.071C1124.92 202.325 1140.45 209.709 1142.36 211.587L1142.51 214.791L1148.79 216.45L1149.56 219.251L1149.52 216.759L1149.94 219.212C1126.09 226.297 1088.74 188.874 1069.4 177.034C1086.58 197.098 1128.9 227.996 1156.51 230.822C1168.85 232.085 1178.05 229.184 1190.59 236.51C1180.05 237.164 1172.4 237.272 1161.92 237.131C1180.81 243.227 1203.58 249.615 1220.08 260.089C1207.98 260.233 1203.89 260.31 1192.15 257.258C1199.1 263.875 1200.69 267.121 1205.27 275.807C1192.6 270.902 1186.89 264.894 1176.53 256.32C1179.57 260.693 1183.41 266.017 1185.8 270.663C1174.62 266 1169.06 263.107 1158.6 257.459L1157.84 256.82L1157.18 256.245L1157.84 256.82L1158.6 257.459C1162.77 263.454 1168.23 271.011 1171.89 277.153C1161.47 273.355 1153.36 265.828 1143.97 259.79C1148.59 265.729 1151.95 269.929 1155.71 276.436C1151.39 274.774 1149.31 273.837 1145.23 271.744C1140.28 269.2 1128.42 257.862 1124.14 259.076L1125.71 263.376C1120.91 264.912 1113.33 259.397 1108.16 258.998L1107.1 258.254L1108.16 258.998L1108.14 261.195C1104.49 261.785 1095.38 258.157 1091.11 256.739C1112.07 274.462 1169.94 295.982 1197.13 297.714C1205.22 298.23 1226.64 294.846 1233.72 297.596C1230.29 303.162 1209.48 302.347 1202.76 303.323C1219.65 307.873 1233.29 305.284 1249.53 313.716C1238.93 315.774 1234.41 316.438 1223.49 316.175C1230.24 320.69 1233.26 323.281 1239.13 329.021C1222.55 325.978 1206.84 319.501 1192.05 316.966C1197.55 321.385 1204.27 327.109 1210.2 330.594L1210.29 331.56C1196.62 336.005 1184.07 320.245 1171.22 316.963C1173.8 320.187 1177.09 323.696 1178.12 327.605L1177.52 329.469C1167.46 327.372 1133.1 305.732 1121.61 305.847L1121.01 305.258L1121.61 305.847C1133.18 311.71 1150.1 319.179 1158.78 328.384C1144.76 326.86 1124.62 319.974 1110.71 315.627C1137.44 332.015 1172.36 349.93 1203.06 357.54C1216.82 360.949 1234.81 360.258 1248.76 363.504C1254.29 364.788 1274.77 365.792 1275.84 368.502C1273.48 369.74 1267.07 371.988 1266.18 372.912C1270.2 376.904 1276.97 374.634 1281.44 372.59C1286.28 372.558 1291.55 378.317 1295.15 381.666C1277.54 384.068 1273.18 379.908 1256.67 373.836C1249.65 371.254 1238.12 369.085 1230.6 368.259C1240.28 375.959 1243.43 380.292 1250.61 390.491C1239.46 385.301 1229.79 377.005 1219.12 373.571L1217.66 372.679L1217.09 372.231L1217.66 372.679L1219.12 373.571C1222.58 376.793 1228.84 381.771 1229.84 386.049L1228.68 387.253C1220.17 387.251 1219 383.766 1212.58 381.708L1212.01 381.225L1212.58 381.708C1218.69 388.649 1229.5 395.357 1233 400.296L1232.79 401.576C1219.71 402.901 1200.58 379.55 1197.51 380.938L1198.8 383.397C1196.49 384.154 1181.07 381.633 1176.75 381.404C1187.99 387.583 1198.35 392.08 1205.61 402.971C1183.9 395.937 1173.3 384.921 1147.07 378.776C1161.14 386.282 1166.49 387.328 1177.69 399.252C1162.73 393.568 1156.9 389.215 1141.01 388.523L1140.43 388.503C1174.26 412.299 1235.97 434.317 1279.59 432.721C1284.68 432.535 1294.5 428.348 1299.17 430.521C1297.33 432.944 1296.06 433.911 1293.79 435.831C1299.61 441.254 1321.01 434.613 1328.46 440.196C1328.22 442.688 1328.23 441.958 1326.2 444.253C1332.96 448.056 1342.66 449.163 1350.69 452.314C1347 452.545 1337.21 453.317 1333.94 452.719C1326.78 451.411 1302.81 441.141 1296.99 445.693C1300.41 452.906 1339.61 468.337 1351.22 475.714C1329.37 470.575 1305.42 463.12 1282.06 463.774C1279.32 463.851 1263.58 467.899 1259.91 468.811L1258.74 469.892C1259.97 471.19 1260.79 471.959 1261.76 473.501C1256.03 474.828 1238.19 468.186 1227.98 467.101L1243.59 475.617C1220.97 477.412 1213.49 469.152 1190.07 470.917C1193.6 471.807 1198.32 472.575 1200.86 474.946L1200.28 476.033C1191.86 477.139 1180.35 475.371 1171.81 474.353C1186.9 482.418 1295.02 496.76 1318.59 498.959C1327.88 499.825 1346.18 496.448 1349.55 497.293L1349.09 498.709C1333.17 503.095 1312.88 503.903 1296.41 503.735C1299.19 504.041 1321.9 505.93 1321.95 505.96L1323.5 507.274L1325.47 508.387L1326.25 509.144L1327.43 510.169L1328.37 511.146L1330.52 512.504L1332 513.985C1334.99 513.364 1335.58 513.084 1338.32 511.717L1339.3 511.438L1338.32 511.717C1335.99 511.782 1332.9 512.232 1330.52 512.504L1328.37 511.146L1327.43 510.169L1326.25 509.144L1325.47 508.387L1323.5 507.274L1321.95 505.96C1323.13 503.911 1323.43 503.789 1325.63 502.848C1332.84 504.116 1352.19 507.612 1357.78 510.063C1357.3 511.599 1352.26 515.141 1350.59 516.47C1334.38 517.208 1310.21 525.046 1297.65 534.636L1292.18 534.342L1292.74 534.241L1291.05 535.274C1302.11 536.485 1328.31 532.876 1340.65 531.425C1352.63 521.606 1354.03 524.14 1366.22 516.705C1370.57 514.052 1371.02 507.737 1371.72 502.868C1397.77 501.313 1427.63 501.457 1453.21 506.156C1474.35 510.04 1482.53 515.14 1494.37 532.438C1499.93 534.812 1506.95 536.113 1512.26 539.16C1513.7 543.679 1517.31 552.626 1521.08 555.457C1538.22 568.318 1526.88 575.537 1512.76 581.286C1511.91 590.276 1511.21 593.659 1507.52 601.607C1516.38 600.551 1525.32 599.21 1534.16 597.958C1534.42 596.174 1534.6 594.55 1534.75 592.754C1545.35 462.141 1505.07 340.766 1420.24 241.163C1328.42 133.34 1198.99 71.7338 1058.51 60.4858C1054.54 52.3042 1051.92 45.9315 1048.65 37.4215C1266.26 46.0958 1460.77 184.91 1533.25 390.997C1540.25 410.916 1545 430.647 1550.39 451.025L1573.54 540.073C1583.17 542.927 1605.5 548.232 1610.29 556.369C1624.64 580.762 1637.99 614.949 1647.79 641.48C1718.67 627.856 1788.5 609.486 1852.89 576.029C1832.05 630.79 1796.97 673.534 1755.18 713.425C1819.51 730.779 1886.23 739.28 1952.64 742.823C1917.32 760.789 1868.24 777.895 1830.11 790.415C1707.08 830.802 1573.92 862.249 1445.26 877.483C1439.35 867.99 1427.87 841.688 1422.06 829.865C1399.64 854.505 1381.81 875.233 1355.83 897.308C1273.04 967.655 1167.95 1010.67 1059.79 1019.87C907.847 1032.78 752.51 968.714 647.137 859.928C639.039 851.554 629.829 839.926 621.179 832.675C613.224 834.31 601.181 869.547 597.53 878.349C578.804 874.952 559.44 872.903 540.356 869.698C419.454 849.395 298.905 821.704 183.273 780.619C155.407 770.718 116.971 757.711 92.4853 742.269C152.651 740.258 230.524 726.94 288.77 713.205C243.564 672.505 214.114 632.086 189.262 577.003C254.72 607.829 323.517 631.708 395.857 639.446C402.727 622.695 423.96 563.728 432.596 553.838C440.329 544.981 455.498 545.268 466.25 544.555C477.353 518.357 490.12 461.771 497.38 432.574C516.729 354.759 552.531 286.64 604.283 225.404C684.6 130.37 796.175 69.9125 917.663 46.2917C944.288 41.1151 966.152 39.0618 993.205 36.9135C991.61 45.1858 987.59 53.3779 983.869 60.8562C977.257 60.9415 970.955 61.7332 964.404 62.3453C697.518 87.2831 479.181 322.856 508.64 597.724L531.153 597.078L530.509 584.974C524.324 579.701 514.532 577.211 512.733 569.55C513.497 560.449 520.292 561.764 521.421 558.796C525.828 547.21 531.829 542.101 541.248 534.144C545.548 530.512 551.75 521.635 556.234 518.475C578.789 502.586 616.404 505.95 642.989 501.984C658.497 499.885 672.323 498.284 687.503 497.389C694.088 496.74 704.963 500.367 711.13 499.788C756.984 495.488 803.618 491.973 847.704 477.714C851.139 476.603 859.419 474.699 861.714 472.535L860.211 471.302C851.119 468.333 810.519 484.528 801.855 478.257C802.887 474.974 813.758 468.375 817.236 466.028C792.345 467.568 792.315 472.212 770.266 478.487C779.035 470.987 786.105 465.935 796.067 460.243C781.252 462.586 769.985 466.764 755.801 471.506C764.684 464.446 776.162 460.701 787.128 451.791C780.264 453.592 773.416 456.62 766.582 458.684C759.495 461.366 750.738 461.937 743.693 464.252C725.086 470.367 715.032 471.233 695.59 469.091C710.396 463.723 726.943 460.376 739.77 451.486C744.957 447.892 748.693 446.777 754.566 444.944C736.266 444.865 735.947 448.31 719.278 452.405C717.493 452.843 699.686 453.023 696.041 453.199C725.764 435.82 735.751 436.233 768.747 435.512C764.159 431.962 761.904 430.463 758.423 425.68L758.687 424.352C764.832 424.394 777.786 430.855 782.148 431.102C814.57 432.939 877.05 405.834 902.759 388.822C886.894 390.698 880.739 393.379 865.786 398.732C869.991 394.965 889.01 382.562 889.212 381.91C883.117 381.695 873.918 384.495 868.271 386.951C863.586 388.988 847.372 402.327 842.78 399.953C845.26 393.334 857.1 383.873 862.846 379.654L863.994 379.201L862.846 379.654C835.389 385.631 832.902 396.963 812.102 403.867C818.336 394.089 821.724 389.912 829.71 381.537C820.451 385.877 812.965 389.017 803.499 392.74C807.251 389.043 813.796 383.848 817.979 380.349C806.268 383.847 800.859 385.614 788.646 386.383C803.167 373.874 807.846 374.461 825.957 369.772C817.062 369.761 796.139 371.303 787.847 373.572C771.235 378.117 768.778 381.656 750.553 382.452C762.032 364.483 781.595 365.911 799.902 362.771C818.227 359.628 845.131 358.15 862.222 351.883C885.008 343.528 916.33 325.639 936.188 311.546C921.09 316.696 902.392 326.354 884.76 332.6C901.858 310.141 906.47 319.517 926.449 305.485C891.885 317.843 892.386 312.201 861.389 336.166C864.997 323.611 865.339 323.308 874.407 313.827C866.049 317.837 843.736 333.853 836.826 333.768C837.158 330.621 849.472 318.137 852.393 315.709L852.995 315.224L852.393 315.709C842.563 317.32 821.066 323.715 813.108 329.652C811.088 331.159 804.611 338.004 802.546 340.2C799.847 337.328 796.476 334.348 793.557 331.64C800.598 327.069 805.084 323.508 811.619 318.178C801.577 319.744 792.042 323.006 782.346 326.035C799.669 310.908 810.762 311.679 830.175 304.924C815.51 304.708 810.664 303.952 796.499 299.452C858.754 295.291 893.182 294.45 947.539 259.264C942.986 259.789 935.784 261.64 931.786 261.194L930.435 258.649C925.649 259.004 922.709 263.364 917.001 264.913C914.961 262.799 918.267 262.306 917.565 258.435C913.295 259.761 899.398 269.918 889.379 274.128C892.068 268.04 892.879 266.168 896.93 260.768C887.753 266.009 877.779 272.987 867.492 273.674L878.51 260.047C861.767 263.063 858.503 264.7 844.497 273.969C841.329 271.704 837.342 269.355 833.991 267.261C843.086 263.384 854.852 258.455 862.797 252.587L863.927 252.085L862.797 252.587C846.753 257.545 836.712 259.466 820.114 260.145C823.26 258.27 840.854 247.462 843.385 246.888C853.526 244.59 858.672 245.611 869.521 240.491C861.593 239.639 857.439 238.702 849.665 236.755C858.071 235.178 906.914 230.854 906.862 219.484C904.457 216.977 899.325 216.604 895.682 215.96C905.409 212.107 912.131 209.476 920.484 203.187C903.276 209.509 900.065 214.488 879.656 218.528C892.823 210.215 903.322 204.851 917.213 198.433C905.067 198.386 893.19 198.523 881.047 198.759C896.735 193.856 965.253 167.817 970.648 154.432C969.175 150.801 965.774 154.986 962.035 152.008C963.026 150.82 964.068 149.907 964.252 148.434C960.721 148.948 953.683 150.506 951.182 148.733L952.609 146.848L952.006 146.157C943.552 147.628 940.042 148.129 931.509 148.146C935.463 143.451 947.709 134.067 953.647 128.038C936.535 135.837 928.154 140.354 909.289 140.83C923.368 133.579 936.323 129.527 949.404 119.83L949.995 119.255L949.404 119.83ZM1048.9 103.032C1052.83 116.06 1060.33 132.956 1074.24 137.536L1074.82 137.803L1074.24 137.536C1073.66 136.24 1050.01 104.161 1048.9 103.032ZM972.632 250.398L972.243 250.835L972.632 250.398C983.501 245.222 995.157 211.83 995.916 200.554C992.565 203.638 974.355 244.38 972.632 250.398ZM1067.18 301.162L1067.64 301.502C1071.02 316.288 1113.02 355.706 1130.22 353.607C1128.65 348.181 1117.6 344.528 1112.13 341.905C1095.4 333.891 1081.22 311.417 1067.64 301.502L1067.18 301.162ZM1237.59 504.065C1242.72 505.542 1246.26 506.723 1251.65 507.155C1259.11 509.171 1269.24 508.459 1272.29 512.761L1271.5 514.517C1256.43 525.639 1228.39 533.98 1222 540L1222 537.943L1220.69 537.205L1222 540L1223.28 542.829C1225.81 541.722 1229.32 536.81 1233.86 534.934C1242.76 531.257 1268.27 522.232 1274.95 516.312L1275.29 514.301C1271.79 505.992 1259.76 506.436 1251.65 507.155C1260.52 500.534 1287.17 508.472 1292.74 504.963C1289.53 503.343 1286.36 503.925 1282.74 504.16C1267.64 502.086 1253.07 503.845 1237.59 504.065ZM1377.96 509.964L1376.54 511.282L1375.82 512.247L1374.64 514.725L1374.17 515.995L1374.64 514.725L1375.82 512.247L1376.54 511.282L1377.96 509.964L1378.99 509.244L1377.96 509.964ZM1436.22 511.005L1437.36 511.416L1437.75 512.995L1437.36 511.416L1436.22 511.005ZM739.15 517.24L739.892 518.109L741.36 519.396L742.263 520.182L743.407 521.179L744.388 522.144L746.378 523.446L746.754 523.991L746.378 523.446L744.388 522.144L743.407 521.179L742.263 520.182L741.36 519.396L739.892 518.109L739.15 517.24ZM1121.05 517.261L1121.62 517.758C1130.53 528.382 1172.58 544.58 1187.01 542.294L1185.97 540.205C1177.79 537.031 1166.26 534.517 1157.23 531.286C1145.49 527.083 1133.11 521.5 1121.62 517.758L1121.05 517.261ZM1440.17 519.005L1441.56 520.237L1441.83 522.995L1441.56 520.237L1440.17 519.005ZM595.318 522.073C593.434 524.888 592.223 526.296 591.682 529.648L593.352 530.098C594.781 527.001 594.847 525.429 595.318 522.073L595.881 521.005L595.318 522.073ZM1371.39 527.699C1369.89 531.425 1370.4 532.096 1367.04 533.483C1360.76 536.071 1348.48 533.937 1343.22 535.91L1343.01 536.995L1343.22 535.91C1349.22 536.921 1364.56 537.869 1369.84 533.829C1371.55 532.517 1371.19 530.142 1371.39 527.699L1371.79 525.94L1371.39 527.699ZM1262.59 530.347L1261.67 530.723L1262.59 530.347C1264.49 530.411 1266.11 530.365 1268.01 530.303L1268.67 528.571C1266.4 528.233 1264.76 529.343 1262.59 530.347ZM1258 532L1253.74 533.437L1251.57 534.286C1246.53 534.672 1240.28 536.914 1235.33 538.454C1249.46 537.143 1269.42 539.066 1281.41 534.619C1297.79 528.541 1312.95 520.005 1329.88 514.221C1320.24 514.283 1279.95 506.939 1274.94 510L1277.72 510.976C1289.37 511.011 1301.76 512.134 1313.17 514.589L1314.81 516.75C1311.87 521.117 1292.46 517.762 1287.13 517.244C1290.72 519.373 1303.12 519.822 1308.18 520.803L1296.58 525.788C1293.56 524.867 1289.34 523.219 1286.4 523.664C1288.7 525.421 1291.35 526.175 1294.07 527.137C1283.64 532.753 1265.2 537.305 1253.59 535.719L1251.57 534.286L1253.74 533.437L1258 532L1259.99 531.184L1258 532ZM1377.79 531.898C1385.15 532.03 1392.39 531.755 1399.75 531.525L1399.8 533.995L1399.75 531.525C1396.01 524.856 1397.39 513.593 1389.72 511.371C1386.03 512.171 1385.57 512.444 1382.41 514.462C1379.64 520.638 1379.04 525.266 1377.79 531.898ZM1235.88 538.791L1231.02 539.75L1229.99 541.405C1226.74 542.64 1224.42 543.636 1221.29 545.145L1221.05 544.375C1220.25 541.794 1220.06 541.014 1218.12 538.998C1216.05 543.646 1218.16 549.913 1223.43 551.849C1225.59 554.088 1225.88 554.441 1228.87 555.2L1228.34 558.139L1229.46 558.593L1230.6 557.443L1228.87 555.2C1227.07 553.123 1225.96 552.9 1223.43 551.849C1223.05 546.241 1225.98 544.796 1229.99 541.405C1234.28 541.098 1232.71 541.783 1235.88 538.791L1236.99 538.247L1235.88 538.791ZM1376.23 541.37C1373.78 541.55 1371.84 541.173 1370.51 542.565L1374 543.669L1375.47 547.495C1376.57 546.147 1376.19 543.524 1376.23 541.37C1378.85 542.021 1382.31 542.56 1384.66 541.099C1382.67 540.645 1378.45 541.187 1376.23 541.37ZM727.449 538.082C757.287 538.297 752.809 534.288 784.831 543.398L785.995 543.816L784.831 543.398C778.476 539.295 771.552 538.699 764.176 533.983L765.346 533.566L765.132 534.602L766.51 533.76C791.332 540.036 795.115 542.722 812.74 558.965L814.045 560.957L814.803 561.995L814.045 560.957L812.74 558.965C808.524 545.908 783.337 534.806 770.32 532.622C763.913 531.547 757.784 532.909 751.488 532.892C728.925 532.834 706.214 535.477 683.726 534.664C681.638 534.587 679.191 532.785 677.663 531.468L677.026 530.91L676.291 531.783C683.586 543.009 720.911 530.493 726.864 541.473L723.131 542.481L722.658 543.5C725.508 545.167 728.156 544.294 731.332 544.215C739.296 544.015 741.813 552.283 750.514 550.117C759.144 552.911 775.142 551.447 783.821 548.419L782.237 546.985C772.233 544.32 757.578 544.463 747.253 546.368L746.557 545.881C740.982 541.941 734.014 540.194 727.449 538.082ZM624.338 543.093C626.588 544.943 644.18 545.136 648.256 545.101C650.43 546.386 651.785 545.896 654.658 545.894C652.723 544.418 650.466 544.829 648.256 545.101C643.255 543.397 629.671 542.521 624.338 543.093ZM664.005 546.26L665 547L665.045 548.269C660.64 560.784 660.947 586.001 661.153 599.908C636.757 600.043 604.924 591.982 577.491 592.519C579.791 593.977 594.34 595.053 597.725 595.356C624.415 598.102 651.167 600.822 677.724 604.698C679.423 604.946 681.547 604.279 682.9 603.29L682.475 601.541C676.325 602.008 669.135 601.324 663.021 600.687C663.513 585.399 665.202 562.517 665.045 548.269L665.663 548.117L665 547L664.005 546.26ZM733.239 546.817C723.656 545.874 715.594 543.605 705.565 542.821C716.317 546.966 727.877 548.834 738.374 553.418C738.943 553.666 738.681 553.574 739.326 553.717C752.623 563.806 755.239 567.923 764.764 581.932L777.765 580.556C771.391 571.04 769.528 569.586 759.521 563.455C758.029 562.542 754.481 560.737 753.385 559.595L754.995 559.216L753.385 559.595C751.821 557.73 741.88 554.474 739.326 553.717C738.572 552.382 738.567 550.78 738.396 549.214L735.41 548.023L733.239 546.817ZM791.124 546.216L791.822 546.407C793.427 549.408 792.53 548.794 795.143 549.867C794.759 547.797 794.04 547.932 791.822 546.407L791.124 546.216ZM1415 548L1413.75 549.322L1414.29 550.043L1415.29 549.472L1415 548L1415.99 547.227L1415 548ZM1425.01 548.069L1426.68 548.908L1427.03 550.208L1426.01 550.799L1427.03 550.208L1426.68 548.908L1425.01 548.069ZM1471 549L1468 548.765C1466.44 550.447 1466.43 550.683 1465.57 552.855L1464.76 554.146L1463.78 556.252C1463.42 558.177 1463.25 558.655 1462.08 560.226L1462.78 562.272L1461.79 561.982L1461.24 561.005L1461.79 561.982L1461.77 564.726L1460.06 563.981C1460.26 565.217 1460.45 566.794 1460.75 567.977L1459.25 567.281C1458.36 570.107 1458.12 570.845 1459.21 573.724L1457.69 574.015L1457.26 572.005L1457.69 574.015L1457.84 579.431C1457.42 580.472 1457.13 580.933 1457 582L1455.56 586.258L1455.23 587.271L1455.56 586.258L1457 582L1457.84 579.431C1458.4 577.784 1458.83 575.466 1459.21 573.724C1460.78 571.233 1460.9 570.91 1460.75 567.977L1461.77 564.726L1462.78 562.272C1464.49 560.722 1465.46 558.025 1466.48 555.842C1468 554.658 1470.79 552.916 1472.49 551.779L1470.32 551.454L1471 549C1480.58 547.759 1491.8 545.707 1500.85 549.283C1504.29 550.64 1508.09 553.337 1511.54 553.613C1505.26 544.147 1477.18 542.795 1471 549ZM553.338 554.144C555.412 555.368 557.242 554.935 559.973 554.983L561.554 556.336L563.393 557.167C564.02 558.484 566.624 561.972 567.666 563.691C571.177 569.482 572.351 574.834 573.913 581.329C574.312 573.521 571.429 560.536 563.393 557.167L561.554 556.336L559.973 554.983C556.957 553.658 556.506 553.396 553.338 554.144ZM541.71 558.707L541.256 559.995L541.71 558.707L542.995 558.253L541.71 558.707ZM712.297 559.406C712.962 559.731 715.125 559.894 716 560L719.877 561.416L720.995 561.865L719.877 561.416L716 560C714.78 559.279 713.735 559.429 712.297 559.406ZM701.214 560.546L700.011 561.812L701.214 560.546L703.995 560.239L701.214 560.546ZM697.486 562.598L695.606 564.491L694.708 565.099L693.576 566.182C690.263 567.978 691.412 566.949 689.312 570.286L688.844 571.235L688.211 571.995L688.844 571.235L689.312 570.286C691.755 568.889 691.975 568.518 693.576 566.182L694.708 565.099L695.606 564.491L697.486 562.598L698.995 562.224L697.486 562.598ZM815.251 563.005L816.235 563.518L816.743 564.995L816.235 563.518L815.251 563.005ZM1293.01 563.231L1294.11 563.883L1294.37 565.417L1295.84 565.778L1295.83 565.134L1294.11 563.883L1293.01 563.231ZM1377.15 557.341C1376.44 560.078 1377.4 562.601 1378.13 565.339C1378.23 567.17 1378.11 568.399 1379 570C1379.12 570.508 1379.51 572.354 1379.7 572.687C1379.93 574.493 1379.91 576.154 1380.77 577.65C1380.91 584.115 1382.85 592.254 1380.83 598.365C1380.21 600.215 1377.47 600.665 1375.11 601.597C1378.87 602.294 1384.77 601.402 1388.75 600.997C1390.34 600.977 1392.03 600.653 1393.62 600.41L1384.29 599.941C1382.21 596.881 1383.74 585.678 1380.77 577.65C1380.75 576.007 1380.15 574.317 1379.7 572.687L1379 570C1379.2 567.562 1379.2 567.487 1378.13 565.339C1378.17 562.38 1378.56 559.814 1377.15 557.341ZM769.005 565.249L770.49 565.635L772.353 567.436L772.995 567.751L772.353 567.436L770.49 565.635L769.005 565.249ZM1302.95 565.935L1300.56 567.451L1299.77 568.176L1298.56 569.159L1297.61 570.141L1295.63 571.449L1295.25 571.974L1295.63 571.449L1297.61 570.141L1298.56 569.159L1299.77 568.176L1300.56 567.451L1302.95 565.935L1303.89 565.211L1302.95 565.935ZM1225 567L1222.97 568.159C1221.51 569.422 1220.02 570.29 1219.46 571.891C1217.35 574.63 1216.43 575.076 1216.6 579.076C1218.47 577.325 1218.79 574.526 1219.46 571.891C1221.5 571.265 1221.54 570.313 1222.97 568.159C1223.35 568.06 1224.58 567.259 1225 567L1226.99 566.25L1225 567ZM1272.09 567.221C1269.54 568.88 1267.29 569.88 1266.15 572.56L1267.82 573.708L1268.21 577.379C1274.61 583.112 1285.73 576.42 1291.47 572.375L1292.46 568.526C1287.33 562.289 1273.22 570.206 1267.82 573.708L1272.09 567.221L1272.86 567.072L1272.09 567.221ZM774.005 568.206L774.985 569.03L776.5 570.232C777.122 570.724 778.303 571.725 778.93 572.078L780.299 573.44L781.154 574.278L781.814 574.88L781.154 574.278L780.299 573.44L778.93 572.078L776.5 570.232L774.985 569.03L774.005 568.206ZM677.584 549.903C677.998 553.157 677.42 553.104 679.456 554.962C687.81 547.309 701.715 553.911 711.9 555.319C723.961 556.986 731.896 562.092 740.461 570.41L740.823 570.995L740.461 570.41C735.453 555.315 714.237 554.02 700.939 551.83C696.165 551.044 676.558 547.314 673.575 548.444L677.584 549.903ZM813.955 571.971L812.676 573.443L812.005 573.833L812.676 573.443L813.955 571.971L814.977 571.005L813.955 571.971ZM1310.88 571.88L1309.55 573.289L1308.84 574.299L1308.24 574.995L1308.84 574.299L1309.55 573.289L1310.88 571.88L1312.28 570.148L1310.88 571.88ZM687.327 574.476L685.447 576.635L685.13 577.995L685.447 576.635L687.327 574.476L687.753 573.005L687.327 574.476ZM1263.57 573.701L1262.78 575.493L1261.72 576.211L1260.83 578.422L1262.98 580L1264.99 580.995L1262.98 580L1261.72 576.211L1262.78 575.493L1263.57 573.701L1264.99 573.217L1263.57 573.701ZM1307.38 577.519L1305.42 579.617L1305.06 580.995L1305.42 579.617L1307.38 577.519L1307.77 576.005L1307.38 577.519ZM1221.2 578.49L1220.22 578.995L1221.2 578.49L1221.75 577.005L1221.2 578.49ZM1251.22 580.262L1252.9 581.103L1254.28 582.475L1255.31 584.63C1252.53 588.932 1245.92 584.353 1241.25 587.925C1245.45 588.108 1252.56 588.927 1255.84 586.963L1255.31 584.63L1254.28 582.475L1252.9 581.103L1251.22 580.262ZM756.003 578.084C755.832 580.527 758.663 581.494 760.511 582.597L760.829 582.852C762.703 584.763 763.467 585.585 764.997 587.774L763.052 588.565L762.503 590.445C764.598 591.811 765.019 592.092 766.664 593.965C766.2 596.928 766.521 595.85 763.982 598.573C761.372 598.668 761.144 598.626 758.735 599.534C761.411 600.181 763.855 599.821 766.621 599.643C767.419 598.396 767.745 597.935 768.356 596.556C769.125 595.085 769.745 593.519 770.396 591.987L768.575 589.231L782.399 586.511C772.799 584.806 775.389 590.148 760.829 582.852L760.511 582.597C758.85 580.01 758.622 579.668 756.003 578.084ZM744.272 580.132C744.257 581.014 744.601 581.788 744.873 582.667C744.907 589.361 743.622 603.193 744.81 608.315C746.84 603.264 746.512 588.101 744.873 582.667C744.933 581.573 744.667 581.264 744.272 580.132ZM1283.43 590.282L1282.01 590.77L1283.43 590.282L1285 589.093L1283.43 590.282ZM593.459 589.266L594 591L594.74 591.995L594 591L593.459 589.266ZM1454.66 591.727L1452.38 593.422L1451.88 594.236L1450.76 595.353L1449.75 596.248L1448.01 596.958L1449.75 596.248L1450.76 595.353L1451.88 594.236L1452.38 593.422L1454.66 591.727L1454.89 589.005L1454.66 591.727ZM1470.42 589.268L1471 591L1471.86 592.995L1471 591L1470.42 589.268ZM1450 591.999C1449.31 592.565 1448.54 593.057 1448.13 593.782C1445.79 593.967 1444.03 593.699 1442.34 594.865C1439.12 594.923 1427.26 594.921 1425.34 596.897C1421.75 596.925 1408.92 596.93 1406.34 598.92C1403.64 598.893 1400.34 598.425 1398.34 599.873C1401.91 599.931 1402.93 600.078 1406.34 598.92C1411.59 599.634 1420.2 598.139 1425.34 596.897C1429.98 597.671 1437.76 596.002 1442.34 594.865C1444.23 595.261 1446.22 594.378 1448.13 593.782L1450 591.999C1450.56 591.595 1450.93 590.702 1451.3 590.045L1450 591.999ZM823.745 592.617L823.222 593.995L823.745 592.617L824.895 592.089L823.745 592.617ZM1473.2 596.037L1473.55 597.51L1475.56 599.362L1476.17 600.236L1477.29 601.32L1477.85 601.85L1477.29 601.32L1476.17 600.236L1475.56 599.362L1473.55 597.51L1473.2 596.037ZM535.252 601.005L535.962 602.04C536.82 603.285 537.45 604.311 538.474 605.433L538.995 605.83L538.474 605.433C537.696 604.11 536.914 603.234 535.962 602.04L535.252 601.005ZM1218.44 604.196C1220.9 605.67 1224.4 605.125 1227.48 605.035C1233.68 607.763 1253.27 605.229 1255.27 608.742L1254.99 610.29C1251.9 611.044 1235.98 613.608 1235.4 614.166C1241.72 615.408 1250.44 615.669 1254.99 610.29L1255.27 608.742C1259.59 607.615 1278.99 609.882 1284.2 607.1L1284.25 605.847C1281.15 603.997 1247.24 606.79 1240.93 605.093C1239.53 604.716 1229.51 604.778 1227.48 605.035C1223.87 603.687 1222.26 603.98 1218.44 604.196ZM1376.32 604.965C1371.6 604.844 1371.27 605.582 1367.83 603.407L1370.14 603.289C1368.48 602.642 1368.53 602.557 1366.7 602.942L1364.49 604.127L1365.13 605.513C1369.07 606.253 1372.42 606.039 1376.32 604.965C1378.62 605.633 1385.56 605.305 1387.65 604.086C1385.09 603.698 1378.59 603.562 1376.32 604.965ZM1304.42 605.268L1305 607L1305.85 608.995L1305 607L1304.42 605.268ZM809.441 609.817L808.756 611.365L808.062 611.791L808.756 611.365L809.441 609.817C813.292 609.942 813.532 610.004 815.133 613.226C813.313 621.498 805.322 622.416 798.554 619.386C794.706 617.663 793.123 614.287 790.315 611.403L789.409 612.203L790.04 614.328C806.755 633.385 820.852 617.894 815.663 608.363C812.138 607.961 813.044 608.156 809.441 609.817ZM1306.06 610.005L1307.08 611.919L1308.23 613.514L1309.37 615.555L1310.15 616.226C1311.08 617.949 1311.11 618.247 1312.92 619.077L1313.94 619.933L1312.92 619.077C1311.97 617.658 1311.43 617.359 1310.15 616.226L1309.37 615.555L1308.23 613.514L1307.08 611.919L1306.06 610.005ZM686.261 614.005L686.79 615.479L687.749 615.995L686.79 615.479L686.261 614.005ZM323.931 698.958C334.151 700.793 346.154 702.71 356.501 703.056L356.995 703.739L356.501 703.056C347.144 698.212 325.24 692.241 314.756 690.695L323.931 698.958ZM1711.47 753.127L1711.01 753.74L1711.47 753.127C1720.38 752.896 1741.34 748.721 1749.46 744.378C1736.89 742.215 1722.97 748.032 1711.47 753.127ZM1663.41 785.819C1657.69 786.801 1651.83 788.155 1646.21 789.634C1607.98 799.711 1569.96 807.14 1531.1 814.229C1525.5 820.96 1520.02 827.194 1514.17 833.711C1539.07 828.885 1570.84 823.579 1595 817.397C1612.16 813.564 1629.18 809.141 1646.05 804.163C1650.2 802.94 1653.83 800.938 1658.25 799.577C1655.94 799.242 1584.97 813.032 1577.43 814.296C1595.69 806.372 1648.19 796.05 1663.41 785.819L1663.99 785.259L1663.41 785.819ZM377.005 797.252L378.225 797.779C398.101 808.811 500.843 829.202 527.587 832.68C523.18 826.829 516.959 820.158 512.006 814.572L446 800.922C425.519 795.667 402.936 790.424 382.125 785.315C404.099 796.5 429.674 804.056 453.59 809.797C456.485 810.492 466.895 811.983 468.482 813.491C463.74 813.891 458.316 812.011 453.58 811.733C428.14 810.237 403.049 801.104 378.225 797.779L377.005 797.252ZM1033.1 100.554C1034.4 111.783 1039.39 139.564 1051.58 143.42C1044.81 129.94 1040.35 116.726 1035.34 102.559C1035.07 101.822 1033.76 100.934 1033.1 100.554ZM1002.52 102.645C998.016 116.201 993.887 128.203 987.515 141.034L988.656 142.346C997.063 133.9 1003.11 117.231 1004.04 105.426C1003.5 103.961 1003.59 103.615 1002.52 102.645ZM987.664 103.699C983.269 112.153 978.614 118.947 972.78 126.448C970.687 129.137 965.899 133.865 965.857 136.632C974.429 131.372 991.25 114.529 987.664 103.699ZM1012.96 103.481C1010.67 108.361 1005.84 129.897 1006.4 135.977C1006.45 136.544 1007.63 137.802 1008.11 138.239C1014.12 132.747 1017.05 109.348 1012.96 103.481ZM1023.15 103.305C1022.74 111.814 1021.61 136.079 1032.2 137.436C1031.69 132.446 1027.55 106.317 1024.64 103.825L1023.15 103.305ZM965.732 180.027C962.939 181.753 921.518 210.876 921.632 210.65L922.342 211.234C932.089 207.996 962.763 189.695 966.426 180.663L965.732 180.027ZM1016.6 181.192C1014.88 192.858 1015.78 209.774 1014.7 222.353C1014.08 229.601 1010.91 245.225 1011.1 250.74L1012.05 251.043L1012.48 250.655C1020.27 230.027 1022.6 205.638 1020.14 183.662C1019.99 182.296 1017.68 181.643 1016.6 181.192ZM1028.71 181.172C1025.88 194.665 1031.95 255.871 1044.86 261.252C1043.54 248.404 1034.25 227.695 1033.31 212.091C1032.97 206.484 1033.08 183.998 1031.81 181.911L1028.71 181.172ZM1008.02 182.573C1001.65 201.545 1002.23 225.665 992.694 244.587C991.369 247.217 986.139 258.193 988.143 260.226C998.254 247.212 1016.4 194.823 1008.02 182.573ZM935.002 184.188C929.382 185.635 910.859 190.133 907.039 192.808L909.042 193.395C917.631 191.96 928.98 189.678 936.56 185.178L936.895 184.039L935.002 184.188ZM986.711 184.889C979.538 204.015 970.784 218.89 956.671 233.615C954.513 235.867 950.752 238.966 950.683 241.73L951.486 242.735C966.353 233.364 988.389 203.927 987.477 185.856L986.711 184.889ZM1052.78 186.672C1054.55 199.815 1072.95 239.987 1086.19 242.121C1084.9 234.003 1069.38 218.747 1065.02 210.419C1062.83 206.243 1055.3 188.18 1052.78 186.672ZM1037.3 187.757C1038.08 200.229 1047.3 248.362 1059.5 253.593C1056.44 245.075 1039.53 189.594 1037.3 187.757ZM955.87 203.942C950.483 207.834 924.623 224.793 922.43 227.712L923.36 229.516C934.645 227.623 952.972 215.888 956.602 204.893L955.87 203.942ZM1084.25 206.617C1090.15 216.253 1102.92 233.589 1115.42 231.44C1112.59 225.745 1089.82 208.356 1084.25 206.617ZM1004.91 295.621C999.676 318.347 1002.73 347.474 993.571 370.572C992.371 373.597 990.123 379.305 990.676 382.263L993.024 383.303C1001.05 371.932 1015.27 304.626 1004.91 295.621ZM1015.84 295.422C1013.94 299.26 1014.01 304.565 1014.04 308.891C1014.19 336.14 1012.77 356.378 1006.82 383.108L1007.57 384.416L1008.83 383.716C1019.5 359.307 1020.84 325.173 1019.21 298.532C1019.12 297.074 1016.96 296.109 1015.84 295.422ZM1028.08 295.32C1027.02 300.064 1026.85 304.613 1026.59 309.455C1025.18 335.882 1020.92 364.923 1036.72 388.18C1030.64 358.717 1028.43 349.413 1031.54 318.858L1032.16 318.027L1033.58 325.563C1036.12 339.881 1039.93 372.993 1049.34 382.492L1050.93 382.663C1051.33 381.322 1047.24 366.756 1046.31 364.672C1041.34 353.475 1035.38 297.548 1028.08 295.32ZM1038.93 299.551C1038.99 301.087 1058.21 367.477 1059.05 368.465C1060.29 368.556 1061.26 368.699 1062.49 368.574C1062.94 359.228 1046.24 302.607 1038.93 299.551ZM981.179 301.612C973.201 315.865 964.418 330.512 953.76 342.932C949.376 348.041 944.692 351.578 940.423 356.286C940.697 356.988 941.174 358.356 941.536 358.938C955.464 353.043 982.291 317.239 982.425 303.236L981.179 301.612ZM1057.22 301.422C1057.62 317.163 1086.73 356.039 1101.56 358.881C1099.66 351.622 1089.7 344.751 1084.33 338.783C1078.29 332.069 1073.33 326.282 1068.25 318.682C1064.99 313.789 1062.57 303.198 1057.22 301.422ZM992.46 302.77C987.836 311.248 981.306 354.827 979.784 367.519C979.73 367.972 981.211 370.862 981.589 371.551C987.259 366.651 995.243 305.774 992.46 302.77ZM956.839 317.877C944.157 328.277 933.976 340.121 919.01 347.528C916.59 348.726 909.695 352.088 908.432 354.156L908.579 355.263C921.307 351.638 957.703 332.045 956.839 317.877ZM1032.15 415.35C1028.64 427.957 1032.73 474.609 1043.97 483.614C1041.38 472.272 1039.77 464.449 1038.21 452.962C1037.03 444.354 1036.49 422.667 1034.18 416.604L1032.15 415.35ZM1008.25 416.262C1007.64 421.263 1000.27 483.861 999.607 482.674L1001.56 482.602C1007.43 466.96 1014.99 434.064 1010.72 418.065C1009.74 417.229 1009.41 416.801 1008.25 416.262ZM995.153 417.701C993.362 423.765 985.936 471.304 987.527 476.797L988.26 476.392C990.731 466.667 1003.04 425.411 995.153 417.701ZM1021.54 417.295C1018.2 436.886 1018.64 466.19 1028.9 484.012C1030.48 480.891 1029.07 476.358 1028.34 472.889C1024.68 455.447 1024.77 438.462 1024.76 420.679C1023.76 418.54 1023.65 418.52 1021.54 417.295ZM1045.13 419.707C1044.06 430.987 1048.39 470.511 1058.05 476.405C1056.68 469.162 1049.32 423.425 1045.13 419.707ZM1104.35 419.383C1111.76 434.727 1149.24 466.96 1166.1 464.926C1160.43 459.528 1140.54 449.239 1132.19 443.142C1124.73 437.699 1110.26 420.963 1104.35 419.383ZM930.39 420.782C918.984 431.006 912.605 440.505 899.347 449.412C893.735 453.182 875.053 461.04 872.349 464.006L872.504 465.838C887.329 463.276 932.767 435.412 930.39 420.782ZM1057.25 420.527C1056.54 432.385 1059.31 451.557 1069.96 458.297C1067.02 450.333 1060.62 422.767 1057.25 420.527ZM982.39 421.641C980.401 426.697 971.385 457.283 972.794 460.61L973.174 460.851C978.974 451.79 985.282 434.326 983.892 423.51L982.39 421.641ZM880.496 422.965C869.543 428.673 859.99 432.412 848.403 436.478C845.852 437.374 833.787 441.459 831.982 442.441L834.329 444.199C856.793 441.34 865.34 438.692 882.525 423.474L880.496 422.965ZM1123.97 422.6C1137.28 436.194 1177.76 466.35 1197.42 460.128C1195.98 458.207 1178.05 452.221 1174.9 451.79C1161.78 449.996 1132.88 424.415 1123.97 422.6ZM942.457 423.779C934.902 437.539 927.237 447.107 914.59 456.57C911.917 458.571 905.238 462.413 904.559 465.144L905.343 466.132C919.936 462.302 945.069 441.56 943.398 424.855L942.457 423.779ZM1094.08 423.52C1099.97 437.886 1120.38 468.736 1137.61 467.56C1135.33 462.615 1120.76 454.241 1115.48 449.203C1110.74 444.673 1097.6 425.457 1094.08 423.52ZM1146.4 424.971C1157.86 434.86 1196.58 450.019 1212.61 448.823L1213.09 448.785C1204.65 439.336 1170.07 434.607 1157.87 429.166C1156.3 428.468 1147.76 425.237 1146.4 424.971ZM908.535 425.94C893.871 435.78 884.535 441.9 867.758 448.502C859.288 451.835 844.138 456.223 836.753 459.876C836.985 460.964 836.724 460.814 837.321 461.297C864.114 458.937 890.52 447.003 909.137 427.448L909.022 426.249L908.535 425.94ZM961.698 425.645C955.618 438.756 949.017 449.415 939.966 460.712C937.908 463.28 937.047 463.489 936.833 466.643L937.485 467.943C949.63 461.779 963.874 441.011 962.945 427.123L961.698 425.645ZM1078.51 426.631C1078.34 440.405 1090.15 466.696 1105.86 466.951C1104.87 462.849 1095.83 455.406 1092.67 450.938C1088.74 445.377 1082.78 430.355 1078.51 426.631ZM1275.76 452.337C1273.08 452.629 1269.97 452.366 1268.66 453.956C1275.39 455.895 1288.64 456.381 1296.76 457.947L1301.75 458.685L1302.06 457.989C1295.74 454.899 1282.76 451.618 1275.76 452.337ZM1240.44 458.202L1235.02 458.994L1234.44 459.854C1238.86 461.59 1253.17 462.761 1257.68 461.696L1263.97 460.624L1264.64 459.669C1259.53 458.267 1246.05 457.966 1240.44 458.202ZM1016.86 464.39C1014.02 470.58 1013.13 475.2 1013.86 481.972C1014.52 482.881 1014.96 483.669 1015.81 484.363C1017.48 479.136 1020.42 469.173 1016.86 464.39ZM684.79 500.389L677.019 501.387L677.526 502.288C691.74 501.83 708.912 504.522 721.912 510.406L726.404 510.71L726.446 509.812C717.451 503.884 695.117 497.996 684.79 500.389ZM989.596 501.726C982.383 521.019 975.744 538.69 962.128 554.51C960.168 556.786 956.017 561.793 955.312 564.293L955.991 565.065C972.254 554.723 990.143 522.312 990.698 503.108L989.596 501.726ZM1049.46 501.502C1051.46 518.798 1068.37 559.94 1087.99 562.312C1079.22 551.907 1071.88 544.525 1064.39 532.953C1060.35 526.702 1052.42 504.05 1049.46 501.502ZM680.335 504.255C676.784 505.304 671.904 506.291 669.468 508.839L669.099 511.055C673.797 517.5 694.399 512.695 702.203 511.718C706.241 511.092 710.586 510.505 714.577 509.764C703.955 506.415 691.56 503.42 680.335 504.255ZM789.489 504.404C771.771 506.408 754.575 508.129 736.707 508.15C738.395 508.58 743.3 509.935 744.75 510.04C757.185 511.033 783.546 511.135 794.213 504.357C792.299 503.598 791.61 503.967 789.489 504.404ZM878.876 504.228C851.608 511.572 828.683 516.634 800.203 517.157C797.396 517.209 783.745 517.24 782.66 518.494L785.214 519.945C811.524 524.919 856.374 519.019 879.605 505.503C879.386 505.052 879.195 504.442 878.876 504.228ZM1155.16 503.907C1171.23 517.354 1234.87 524.999 1254.29 517.483L1254.06 516.25C1249.8 515.497 1245.32 515.852 1241.06 515.951C1215.15 516.55 1189.55 512.419 1164.52 506.029C1161.9 505.361 1157.8 504.121 1155.16 503.907ZM1414.26 506.5L1415.5 506.5L1414.26 506.5ZM736.267 507.5L737.49 507.5L736.267 507.5ZM1380.28 508.5L1381.49 508.5L1380.28 508.5ZM1400.74 508.579C1404.43 509.246 1407.3 510.163 1410.71 508.574C1407.87 507.244 1403.99 508.156 1400.74 508.579ZM1399.29 509.5L1400.49 509.5L1399.29 509.5ZM1003.21 509.674C996.379 528.19 997.463 545.845 986.444 567.212L987.279 568.105C995.986 558.468 1011.05 520.69 1003.21 509.674ZM1034.91 509.593C1030.09 522.656 1045.58 557.097 1055.19 567.092C1054.45 556.667 1041.18 534.066 1039.96 521.695C1039.68 518.779 1037.41 511.406 1034.91 509.593ZM938.62 510.798C925.945 524.732 916.229 534.919 899.045 543.842C894.05 546.436 877.561 550.993 877.615 554.644C897.21 553.838 916.466 541.061 929.872 527.387C932.922 524.276 939.726 515.398 938.62 510.798ZM1025.11 511.703C1018.66 519.74 1024.61 558.036 1026.76 568.326C1028.56 562.21 1029.04 521.457 1026.88 513.33C1026.74 512.827 1025.61 512.029 1025.11 511.703ZM1097.69 511.911C1098.68 530.432 1151.16 556.969 1170.21 553.666C1168.16 550.125 1155.21 547.099 1150.81 545.651C1135.07 540.468 1121.92 532.286 1109.33 521.596C1107.67 520.189 1098.93 512.542 1097.69 511.911ZM645.135 512.714C646.893 526.015 652.085 534.336 666.128 535.604C663.228 522.719 659.996 512.633 645.135 512.714ZM1013.09 512.077C1012.12 520.401 1011.44 529.103 1010.55 537.483C1009.87 543.893 1006.47 556.537 1006.73 561.726C1007.02 561.423 1007.79 560.695 1007.93 560.371C1014.02 547.579 1019.34 529.454 1017.41 515.003C1017.16 513.143 1014.72 512.492 1013.09 512.077ZM888.694 514.17C863.703 523.899 849.114 528.305 822.401 531.295L822.053 532.262L823.024 533.041C843.948 533.631 872.186 528.536 889.058 515.425L888.961 514.296L888.694 514.17ZM1146.57 513.954C1157.87 525.94 1202.79 536.117 1218.31 531.852C1216.29 529.871 1212.12 529.551 1209.28 529.209C1187.02 526.526 1167.61 521.73 1146.57 513.954ZM1401.26 514.902C1402.81 520.763 1404.54 526.928 1405.94 532.796C1416.22 532.178 1427.57 531.793 1437.69 530.976C1437.33 526.603 1435.26 521.405 1433.81 517.162C1423.7 515.978 1411.54 515.16 1401.26 514.902ZM620.786 517.446L606.434 517.886L601.683 531.654C608.488 531.951 617.27 532.099 623.882 532.85C629.079 533.236 634.294 533.576 639.468 534.181C638.768 528.566 637.845 522.551 637.814 516.924L620.786 517.446ZM1439.45 517.5L1440.06 517.5L1439.45 517.5ZM1445.11 516.525L1448.78 529.124C1454.56 529.682 1458.8 530.412 1464.51 529.195C1462.41 524.5 1460.49 522.946 1456.88 519.416L1445.11 516.525ZM583.416 518.582C579.253 521.349 574.455 523.671 573.399 528.288C576.267 530.828 579.453 530.33 583.66 530.479L586.339 530.536C589.052 527.551 590.286 522.123 592.137 518.328L583.416 518.582ZM1373.36 518.913L1373.95 519.5L1373.36 518.913ZM596.394 519.5L597.159 519.5L596.394 519.5ZM708.202 520.394C698.388 521.377 689.424 522.012 680.176 525.658C694.518 528.819 704.702 529.447 719.483 528.875C729.05 527.927 734.899 527.731 744.491 527.791C730.77 522.658 722.887 518.874 708.202 520.394ZM1372.38 522.32L1372.74 523.014L1372.38 522.32ZM911.125 521.949C899.314 526.975 888.393 531.61 875.837 534.742C871.768 535.757 854.154 539.803 852.445 541.66L853.851 542.212C868.782 541.948 903.51 534.941 912.526 523.094L912.153 522.083L911.125 521.949ZM954.584 521.866C950.254 526.479 915.434 556.509 915.681 555.787L916.41 556.852C929.838 554.337 942.733 541.626 950.702 530.831C952.314 528.646 955.131 524.602 954.584 521.866ZM1083.76 522.702C1091.7 536.148 1113.3 556.838 1129.64 555.937C1116.16 547.553 1103.16 539.533 1091.57 528.655C1089.5 526.712 1086.37 523.541 1083.76 522.702ZM1273.28 524.445C1275.5 524.997 1274.92 525.2 1276.72 524.51C1275.41 524.269 1274.44 523.9 1273.28 524.445ZM1442.26 524.916L1443.16 525.5L1442.26 524.916ZM642.229 524.621C641.148 527.765 641.415 528.379 642.273 531.501C645.092 534.756 646.069 534.852 650.465 535.165L651.151 535.208C650.548 531.976 644.852 526.706 642.229 524.621ZM1443.21 527.926L1444.14 528.5L1443.21 527.926ZM565.4 529.5L566.49 529.5L565.4 529.5ZM1444.18 530.5L1445 530.5L1444.18 530.5ZM1446.22 532.896L1447.1 533.845L1448.04 533.29L1446.9 532.62L1446.22 532.896ZM1472.29 533.5L1473.49 533.5L1472.29 533.5ZM1489.05 534.896L1490.31 535.271L1489.05 534.896ZM1481.76 535.5L1483.49 535.5L1481.76 535.5ZM1330.27 536.458C1333.96 537.791 1332.62 537.532 1336.73 536.55C1333.91 535.982 1333.09 535.682 1330.27 536.458ZM1340.27 536.5L1341.5 536.5L1340.27 536.5ZM1466.28 538.5L1467.49 538.5L1466.28 538.5ZM798.264 539.5L799.49 539.5L798.264 539.5ZM799.192 539.678C804.01 542.652 807.414 546.989 809.739 548.001C810.689 547.163 811.68 546.324 812.582 545.44L816.088 543.241C813.788 541.25 803.347 540.489 799.192 539.678ZM1388.27 540.471C1391.08 541.422 1389.9 541.41 1392.73 540.513C1391.11 540.29 1389.75 539.897 1388.27 540.471ZM1392.75 540.574C1400.25 541.021 1404.74 541.206 1412.25 540.49C1405.08 539.027 1399.97 539.545 1392.75 540.574ZM550.262 541.5L551.49 541.5L550.262 541.5ZM1244.29 541.54C1247 542.02 1246.49 542.339 1248.71 541.497L1246.5 540.568L1244.29 541.54ZM1252.76 541.5L1254.49 541.5L1252.76 541.5ZM1276.1 541.537C1270.31 541.742 1232.6 543.256 1230.85 544.243C1234 546.58 1233.54 545.831 1238.23 545.942C1252.37 544.343 1268.48 544.055 1283.14 542.815L1283.49 542.249C1281.22 542.011 1278.34 541.62 1276.1 541.537ZM1285.26 541.5L1286.49 541.5L1285.26 541.5ZM544.758 542.183C538.324 543.737 528.483 548.116 528.776 556.198C529.833 555.855 530.149 555.937 530.815 555.272C533.46 552.48 538.53 546.606 541.832 544.883C545.041 543.208 547.811 544.795 548.882 541.801L544.758 542.183ZM1361.26 542.5L1362.49 542.5L1361.26 542.5ZM589.366 544.51C587.673 552.028 587.183 557.405 588.357 565.18L589.49 566.5C588.737 559.692 589.837 552.073 590.547 545.171L589.366 544.51ZM1335.45 543.001L1333.28 544.164C1335.3 545.347 1344.3 544.569 1347.24 544.456L1349.53 543.527C1345.33 542.651 1339.84 542.947 1335.45 543.001ZM1348.75 543.574C1351.73 543.769 1356.03 544.307 1358.73 543.524C1355.24 542.101 1352.85 542.927 1348.75 543.574ZM787.274 544.5L788.49 544.5L787.274 544.5ZM1305.66 544.395C1294.29 545.934 1242.92 552.147 1234.39 554.738C1234.53 557.849 1234.42 559.075 1235.82 561.959C1239.89 563.889 1240.1 563.094 1245.24 562.758C1261.52 560.941 1276.63 556.662 1292.51 552.952C1299.19 551.391 1310.41 553.355 1316.08 548.881L1315.94 545.947C1312.39 543.048 1310.67 543.892 1305.66 544.395ZM789.32 545.5L790.49 545.5L789.32 545.5ZM659.262 546.5L660.49 546.5L659.262 546.5ZM618.887 547.965L619.678 548.263L618.887 547.965ZM669.257 547.504L670.497 547.502L669.257 547.504ZM560.262 548.5L561.49 548.5L560.262 548.5ZM605.05 548.38C609.22 550.844 611.655 551.415 616.633 550.616C612.661 546.69 610.453 547.645 605.05 548.38ZM560.218 548.838C585.79 562.62 574.602 581.458 579.138 585.536C580.459 572.204 577.537 549.393 560.218 548.838ZM1375.81 550.514L1376.32 553.127L1377.12 553.51L1376.66 550.882L1375.81 550.514ZM1332.75 549.257L1340.34 555.915L1340.99 555.801C1340.81 550.946 1337.01 550.173 1332.75 549.257ZM810.068 552.326C815.999 557.65 820.041 555.214 827.545 553.572L827.473 552.329C821.75 551.638 815.844 552.089 810.068 552.326ZM798.418 553.487C788.197 554.002 769.74 555.35 760.11 554.063L773.931 561.906C785.731 569.091 795.008 565.386 808.769 564.178C806.411 559.934 805.007 556.824 801.286 553.621C799.116 553.01 799.96 552.782 798.418 553.487ZM1321.76 554.348C1317.26 554.785 1301.68 555.997 1298.28 557.196C1307.67 557.766 1314.9 555.704 1321.98 556.034L1323.35 556.44L1317.99 558.148L1318.47 559.089C1323.99 558.249 1329.27 557.33 1334.82 556.653L1334.5 555.332C1331.16 554.121 1331.37 554.471 1328.19 555.207L1327.61 555.347L1326.99 553.755C1325.17 553.899 1323.56 553.978 1321.76 554.348ZM547.257 555.5L548.467 555.5L547.257 555.5ZM545.293 556.5L546.271 556.5L545.293 556.5ZM1284.27 557.49L1286.25 557.496L1284.27 557.49ZM552.56 557.743C538.011 566.116 528.346 583.44 538.867 599.753C542.009 604.626 547.902 604.96 553.293 605.551C575.827 602.72 573.614 558.089 552.56 557.743ZM1280.26 558.5L1281.49 558.5L1280.26 558.5ZM1483.86 557.991C1464.62 570.375 1470.86 605.273 1496.12 605.123C1516.72 593.884 1508.57 555.795 1483.86 557.991ZM706.758 559.5L708.49 559.5L706.758 559.5ZM1276.26 559.5L1277.49 559.5L1276.26 559.5ZM1315.76 559.5L1317.49 559.5L1315.76 559.5ZM1313.26 560.5L1314.49 560.5L1313.26 560.5ZM760.263 561.5L761.49 561.5L760.263 561.5ZM722.257 562.5L723.448 562.5L722.257 562.5ZM762.299 562.5L763.49 562.5L762.299 562.5ZM1308.33 562.5L1309.49 562.5L1308.33 562.5ZM1306.31 563.5L1307.49 563.5L1306.31 563.5ZM706.528 564.027C698.596 566.45 694.463 569.306 690.2 577.066C683.365 589.505 683.045 613.261 697.598 620.686C700.573 622.204 710.374 622.539 714.246 623.116C742.76 617.109 738.824 562.655 706.528 564.027ZM767.247 564.5L768.423 564.5L767.247 564.5ZM1124.1 564.9L1123.06 567.12L1125.15 571.91C1122.28 575.339 1116.57 576.104 1111.91 577.324C1102.71 588.741 1082.33 616.925 1071.53 623.74L1069.54 623.187C1069.11 622.144 1068.17 620.425 1069.06 619.41C1080.61 606.268 1092.01 592.724 1103.11 579.169C1098.14 578.754 1093.35 578.402 1088.41 577.639C1085.33 584.429 1070.53 614.859 1064.07 618.051L1061.72 616.611C1061.61 612.957 1082.99 582.679 1080.64 577.535C1078.86 577.035 1076.93 576.452 1075.14 576.044C1073.57 576.078 1071.06 575.763 1070.54 576.939C1067.94 582.739 1063.78 601.983 1060.62 606.401L1059.61 606.428C1057.3 596.862 1062.94 585.48 1065.59 574.84C1057.31 573.58 1053.12 573.351 1045.78 569.112C1046.34 588.843 1048.93 609.746 1048.84 629.087L1076.03 629.084C1080 622.72 1135.9 575.197 1144.79 568.259C1136.31 567.391 1132.75 567.041 1124.6 565.028L1124.1 564.9ZM1252.83 565.406C1246.65 565.822 1231.73 566.4 1227 570.375L1227.55 571.403C1232.51 572.599 1234.42 572.476 1239.59 572.417C1251.76 571.934 1255.83 571.786 1267.2 567.607C1261.63 565.877 1258.76 564.359 1252.83 565.406ZM1332.73 565.056C1309.45 571.593 1297.78 602.276 1319.58 618.184C1324.07 621.464 1332.18 619.965 1337.75 619.373C1342.05 618.848 1347.04 618.369 1351.23 617.518C1367.28 596.209 1362.24 567.518 1332.73 565.056ZM817.313 566.5L817.995 566.5L817.313 566.5ZM869.843 566.205C860.133 568.592 851.128 570.028 841.095 569.132C831.198 568.249 830.896 567.29 820.989 568.714C842.926 612.441 822.684 589.681 820.53 621.855C847.375 623.25 876.994 626.838 903.581 626.868C894.564 624.567 841.726 606.996 838.183 602.277C840.598 595.254 847.917 599.407 852.729 600.864C880.496 609.271 910.466 627.153 939.585 628.48L927.47 622.046C917.478 616.646 849.422 579.149 847.486 574.042C849.511 571 848.364 571.932 851.884 570.6C858.686 572.049 941.807 623.061 946.948 628.72L955.433 628.882C940.384 616.227 901.623 585.013 890.074 572.371C886.373 572.763 882.087 573.608 878.732 572.239C873.728 566.519 876.13 567.6 869.843 566.205ZM1217.39 567.513C1214.36 567.98 1202.81 569.242 1201.14 569.965C1192.55 573.68 1182.97 581.961 1175.03 586.615C1154.99 598.368 1128.82 617.535 1108.29 627.148C1112.89 626.989 1125.4 626.659 1129.2 625.728C1146.66 621.454 1170.44 609.938 1186.57 601.847C1191.22 599.522 1201.11 594.264 1205.54 592.636L1207.11 593.335C1207.02 597.801 1204.45 600.978 1200.49 602.909C1184.27 610.838 1167.67 618.596 1151.21 625.971C1174.66 625.272 1200.75 623.901 1223.96 623.977C1220.67 617.177 1217.88 610.249 1214.3 603.596C1213.78 602.629 1215.72 597.762 1216.27 596.53C1213.48 581.428 1207.7 586.989 1217.48 567.979L1217.39 567.513ZM588.949 569.456L589.724 570.901L588.949 569.456ZM899.656 567.747L898.048 570.001C901.757 575.821 942.515 609.024 950.224 618.036C954.322 621.178 957.67 627.826 962.537 629.436C962.729 629.467 962.921 629.498 963.113 629.529C963.52 629.629 963.927 629.729 964.335 629.828L965.402 628.081C962.896 624.952 956.416 618.081 953.519 615.351C938.794 601.478 922.141 566.887 899.656 567.747ZM1153.03 568.571C1133.3 587.063 1103.99 614.225 1081.69 629.097C1086.01 628.851 1091.74 628.692 1095.91 628.108C1101.61 623.883 1105.4 621.623 1111.57 618.091C1137.93 601.59 1165.03 585.849 1191.05 569.096C1171.62 568.516 1174.45 572.03 1153.03 568.571ZM994.997 571.253C990.983 573.68 990.09 574.319 985.52 575.064L983.562 576.993C983.849 582.59 986.307 599.74 983.609 602.846C978.817 601.349 978.91 579.3 978.861 574.398L967.562 576.696C969.754 583.366 981.125 612.818 979.458 617.145L977.826 615.543L979.458 615.13L977.389 614.9L979.256 614.198L976.832 614.023C970.053 602.101 966.824 590.327 962.475 577.332C957.836 577.672 955.458 577.708 950.821 577.398C958.712 592.451 964.405 603.119 973.35 617.42L973.73 618.218L974.312 618.104L973.411 619.919L973.613 620.347L974.787 619.436L975.058 622.788L973.541 623.049C964.559 615.94 949.289 588.505 943.903 577.75L930.823 578.077C940.105 589.864 964.42 618.359 970.828 629.451C978.214 629.622 986.549 629.998 993.858 629.849C994.089 622.675 996.298 575.989 995.536 571.771L994.997 571.253ZM741.46 572.5L742.234 572.5L741.46 572.5ZM742.429 574.5L743.094 574.5L742.429 574.5ZM1602.7 574.937C1590.81 592.986 1573.59 600.022 1553.08 604.248C1526.09 609.809 1498.23 612.335 1470.85 615.294C1437.31 618.918 1403.88 622.524 1370.26 625.438C1238.16 636.891 1105.1 640.669 972.53 639.095C922.555 638.501 872.642 638.184 822.695 635.989C746.452 632.639 670.084 625.976 594.219 617.832C563.059 614.487 480.732 608.358 456.457 592.25C449.288 587.493 443.362 581.513 437.951 574.861L390.749 690.702C372.613 735.367 351.459 756.428 410.407 776.575C417.732 779.079 425.119 781.831 432.644 784.06C498.184 803.362 577.12 813.681 645.742 821.14C843.85 842.672 1044.97 846.213 1243.8 833.89C1372.51 825.855 1504.46 815.597 1628.77 778.96C1647.33 773.489 1678.34 762.401 1670.35 736.338C1661.59 710.989 1650.32 685.635 1639.95 660.811L1616.44 605.215C1613.96 599.437 1606.05 579.266 1602.7 574.937ZM743.294 576.912L744.219 577.5L743.294 576.912ZM1456.47 576.5L1457.49 576.5L1456.47 576.5ZM1286.35 578.5L1287.31 578.5L1286.35 578.5ZM684.386 579.927L684.952 580.5L684.386 579.927ZM1455.51 579.5L1456.49 579.5L1455.51 579.5ZM1468.8 580.481L1468.98 584.525L1470.34 585.451L1469.74 580.986L1468.8 580.481ZM1219.39 580.5L1220.13 580.5L1219.39 580.5ZM591.443 581.5L591.998 581.5L591.443 581.5ZM1303.65 583.405C1301.49 590.271 1300.5 597.199 1304.51 603.559C1303.22 595.608 1303.43 591.958 1304.51 583.818L1303.65 583.405ZM1454.52 582.5L1455.49 582.5L1454.52 582.5ZM683.441 583.5L683.998 583.5L683.441 583.5ZM808.262 584.5L809.49 584.5L808.262 584.5ZM812.262 584.5L813.49 584.5L812.262 584.5ZM1453.67 584.935L1454.49 585.5L1453.67 584.935ZM592.515 585.886L593.407 586.5L592.515 585.886ZM1220.26 585.5L1221.49 585.5L1220.26 585.5ZM1223.27 585.518L1225.25 585.507L1223.27 585.518ZM1285.2 586.061L1286.05 586.788L1285.51 586.052L1285.2 586.061ZM1452.54 587.5L1453.44 587.5L1452.54 587.5ZM1285.29 592.957L1286.15 593.346L1285.29 592.957ZM813.262 593.5L814.49 593.5L813.262 593.5ZM800.758 594.371C791.829 594.942 782.376 594.939 773.609 596.718C777.859 597.133 781.986 597.08 786.25 596.937C794.209 596.149 804.174 596.872 811.619 594.323C809.746 593.224 803.011 593.863 800.758 594.371ZM1472.39 594.5L1473.05 594.5L1472.39 594.5ZM1285.18 596.289L1283.76 596.522L1284.93 596.907L1286.2 596.605L1285.18 596.289ZM769.27 597.5L770.49 597.5L769.27 597.5ZM1273.26 597.5L1274.5 597.5L1273.26 597.5ZM534.355 599.5L535.048 599.5L534.355 599.5ZM1433.26 599.5L1434.49 599.5L1433.26 599.5ZM1413.27 601.412C1415.03 601.883 1415.99 602.137 1417.73 601.509C1416.15 601.227 1414.83 600.867 1413.27 601.412ZM1403.27 602.377C1405.67 603.278 1407.29 603.037 1409.73 602.561C1407.34 601.689 1405.7 601.922 1403.27 602.377ZM806.753 603.322C792.19 604.538 777.565 606.335 763.002 607.296L763.622 608.11C767.188 608.041 770.676 608.055 774.171 607.262C788.813 606.633 803.419 605.083 818.005 603.698L817.368 602.894C813.803 602.901 810.305 603 806.753 603.322ZM1391.27 603.439C1393.71 604.482 1397.17 604.19 1399.73 603.573C1397.32 602.544 1393.8 602.805 1391.27 603.439ZM683.437 606.5L683.991 606.5L683.437 606.5ZM684.4 609.5L684.981 609.5L684.4 609.5ZM223.61 610.179C227.753 618.77 234.087 627.028 239.69 634.749C263.2 667.143 289.955 694.666 320.32 720.638C270.475 733.52 203.596 750.775 152.79 752.438C254.791 789.98 358.288 818.618 464.98 839.507C501.322 846.622 537.917 854.047 574.79 857.754C565.612 844.329 552.017 831.937 541.08 819.795L529.76 818.211C538.008 827.898 546.335 837.531 554.459 847.321C532.369 844.198 510.517 840.565 488.636 836.207C426.738 823.694 365.457 809.792 304.516 793.197C266.508 782.847 227.539 771.829 191.194 756.558C227.901 751.82 263.956 743.786 299.952 735.296C314.773 731.799 330.091 728.805 344.677 724.473C311.799 711.547 267.829 658.064 246.64 628.987C285.93 642.336 324.807 653.02 365.609 660.699C369.973 661.52 382.483 664.99 386.243 662.953C388.106 661.944 389.619 656.833 390.353 654.793C345.985 649.443 303.126 638.467 260.831 624.172C248.3 619.936 236.136 614.181 223.61 610.179ZM1816.73 610.023C1773.15 628.249 1727.39 642.011 1681.08 651.286C1674.95 652.513 1657.21 652.921 1654.71 658.33C1655.31 660.68 1655.71 662.566 1657.45 664.383C1665.25 664.727 1673.94 661.983 1681.61 660.372C1720.75 652.161 1759.98 641.635 1797.36 627.37C1769.94 664.239 1739.62 699.797 1701.4 725.973C1750.09 737.741 1798.69 747.923 1847.96 756.93C1831.08 765.643 1811.13 770.206 1793.03 776.013C1742.98 792.076 1692.97 805.186 1641.87 817.427C1610.78 824.873 1579.62 832.375 1548.18 838.204C1527.99 841.851 1507.73 846.037 1487.17 846.76C1496.41 836.225 1505.94 825.997 1515.82 816.059L1500.98 818.704C1489.46 832.155 1476.87 844.863 1464.43 857.468C1492.86 855.145 1521.12 849.751 1549.2 844.851C1637.67 829.413 1723.84 807.764 1809.27 780.058C1834.48 771.879 1860.78 764.53 1885.07 753.83C1830.95 745.982 1776.49 736.062 1723.69 721.619C1759.12 689.794 1794.84 653.555 1817.91 611.414L1816.73 610.023ZM740.953 610.396L736.716 621.717C754.497 621.998 772.435 623.224 790.191 622.994C789.22 619.484 783.666 615.497 781.106 612.583C768.824 613.686 751.898 617.116 740.953 610.396ZM1260.8 611.512C1257.82 615.387 1254.91 619.388 1251.73 623.1C1264.8 622.905 1277.83 622.491 1290.88 621.884L1296.14 621.162L1297.19 619.596C1296.23 616.565 1294.71 613.786 1293.27 610.961C1282.56 611.315 1271.47 612.501 1260.8 611.512ZM688.507 617.5L689.451 617.5L688.507 617.5ZM277 652.6C280.456 656.539 283.869 660.525 287.512 664.294C311.075 670.57 337.722 678.083 362.17 679.134C347.987 673.219 332.394 669.684 317.699 665.164C304.348 661.057 290.586 655.681 277 652.6ZM1762.09 654.176C1754.21 656.091 1674.82 678.89 1673.72 679.79L1674.87 680.133C1698.95 679.531 1744.55 672.044 1762.89 655.425L1763 654.256L1762.09 654.176ZM297.124 673.838L306.102 682.288C324.517 686.039 345.032 691.504 363.861 691.828C342.451 683.494 319.514 678.678 297.124 673.838ZM1741.32 676.21C1732.53 678.28 1683.35 691.282 1680.21 694.647L1682.01 695.113C1702.43 692.614 1726.57 691.323 1742.55 676.752L1741.32 676.21ZM1723.47 695.932C1712.05 699.829 1698.69 706.232 1686.86 707.884L1686.21 708.888L1688.79 709.413C1702.25 708.316 1715.07 705.642 1725.5 696.371L1723.47 695.932ZM332.179 705.86C341.364 712.973 347.297 715.011 358.874 715.904C350.638 712.181 341.1 707.291 332.179 705.86ZM322.46 738.76L322.51 740.093C324.8 740.553 327.095 741.078 329.405 741.418C327.779 739.937 326.174 738.353 323.791 738.484C323.021 738.526 323.074 738.547 322.46 738.76ZM303.53 743.935L296.029 746.546C298.373 748.851 322.103 752.65 327.274 753.779L330.081 753.768C326.94 750.851 309.179 743.575 304.644 743.809C304.057 743.839 304.041 743.853 303.53 743.935ZM282.844 750.283L265.985 753.872C282.336 757.727 298.677 761.466 315.149 764.767L332.301 767.932C316.282 760.927 299.886 754.378 282.844 750.283ZM1767.67 750.345C1749.85 752.702 1732.94 759.334 1716.26 765.713C1714.27 766.474 1711.56 766.544 1709.8 767.519L1714.54 767.605C1732.69 764.967 1756.58 763.94 1770.87 751.169L1770.87 750.016L1767.67 750.345ZM250.593 758.219L236.756 760.917C264.388 769.858 292.752 776.001 321.238 781.461C324.092 781.914 328.281 783.099 331.041 782.301C322.947 777.472 259.948 756.197 251.097 758.089C250.927 758.125 250.761 758.176 250.593 758.219ZM1785.76 758.201C1774.38 760.761 1763.36 765.279 1752.37 769.154C1738.66 773.985 1724.8 778.49 1710.82 782.468C1715.45 783.285 1722.01 781.153 1726.66 780.266C1752.36 777.195 1778.08 769.02 1802.25 759.978C1796.98 759.164 1791.08 757.683 1785.76 758.201ZM1660.26 798.5L1661.49 798.5L1660.26 798.5ZM658.428 837.756C675.876 858.302 696.935 876.751 718.244 893.206C793.81 951.558 885.547 989.978 981.067 997.767C1111.78 1008.42 1241.56 964.342 1341.2 879.696C1354.37 868.507 1366.54 856.282 1378.83 844.15L1382.77 840.374L1382.62 838.848C1378.35 837.439 1371.34 839.548 1366.89 840.258C1347.24 858.977 1327.1 877.667 1305.24 893.805C1221.41 955.689 1115.44 991.751 1010.89 989.279C884.684 986.295 763.79 929.964 676.694 839.401L658.428 837.756ZM693.218 841.175C716.142 851.689 747.765 853.955 772.303 848.626L772.045 847.411C757.25 845.112 741.83 844.579 726.883 843.361C716.064 842.479 704.005 840.437 693.218 841.175ZM1345.56 842.457C1334.46 844.072 1278.6 843.911 1273.83 847.95C1275.29 848.441 1276.77 848.993 1278.26 849.393C1300.89 854.78 1320.34 847.515 1342.85 847.59C1344.54 846.118 1347.25 844.461 1347.93 842.344C1347.21 842.358 1346.24 842.251 1345.56 842.457ZM802.014 851.162C775.457 858.59 747.185 863.788 719.562 864.352C778.132 914.581 850.592 951.114 926.141 967.113C938.322 969.693 951.17 972.46 963.575 973.469C971.185 959.736 980.317 926.81 975.985 911.742C974.229 905.634 970.324 900.548 964.681 897.553C954.364 892.078 940.956 894.386 930.303 897.859C922.736 900.326 919.869 902.344 916.299 909.459C912.112 917.805 909.681 931.027 902.554 937.102L900.307 937.472C897.243 930.22 906.573 917.839 907.223 909.901C895.741 918.55 886.809 931.783 870.393 929.081C869.302 928.902 868.268 928.512 867.275 928.037L867.144 926.528C875.528 917.648 890.161 919.805 896.514 907.552C893.972 907.678 889.945 908.668 888.09 906.995C889.552 902.087 893.907 899.378 898.198 897.049C912.409 889.335 929.652 883.566 945.761 882.366C933.797 871.71 922.67 864.263 905.839 865.164C895.94 865.694 886.355 869.063 876.581 870.465C869.634 871.462 862.238 870.824 855.47 872.792C851.266 874.015 847.589 875.974 844.658 879.265C836.75 888.144 827.147 912.329 815.976 915.477L814.13 914.9C813.52 911.776 815.235 909.073 816.926 906.566C819.427 902.859 822.294 899.353 824.44 895.424C817.835 897.849 804.905 904.173 798.272 901.114C797.692 900.847 797.183 900.498 796.675 900.119C796.544 899.355 796.178 898.701 796.657 898.043C801.37 891.566 815.204 890.504 822.163 886.385C835.702 878.37 841.564 864.478 858.743 862.223C868.734 860.912 878.247 861.077 887.913 857.728C882.651 856.468 877.297 855.186 871.924 854.524C860.933 853.168 810.575 849.605 802.014 851.162ZM1225.23 851.581C1201.22 852.874 1177.15 853.786 1153.26 856.64C1165.61 859.802 1184.39 860.126 1193.6 863.325C1202.05 866.257 1203.8 875.346 1210.39 880.235C1220.31 887.591 1242.5 888.033 1248.84 899.853C1249.35 900.809 1249.6 901.892 1249.8 902.95L1248.79 904.009C1237.91 903.222 1227.44 895.279 1216.65 892.52C1219.14 895.822 1221.62 899.342 1224.55 902.27C1228.08 905.799 1233.35 908.167 1235.8 912.566L1235.37 914.367C1232.53 915.573 1230.84 915.91 1227.86 914.708C1209.92 907.476 1207.32 884.756 1192.94 874.339C1186.71 869.825 1178.58 871.91 1171.47 870.842C1154.12 868.234 1136.24 860.241 1118.83 867.254C1111.69 870.13 1104.23 875.359 1098.52 880.527C1110.09 884.368 1149.91 894.462 1154.19 904.253C1154.61 905.227 1154.78 906.321 1154.91 907.368L1153.89 908.702C1151.39 908.486 1149.12 908.112 1146.68 907.54L1147.17 908.64L1147.17 907.484C1147.26 907.802 1147.33 908.124 1147.44 908.439C1148.3 911.09 1152.79 914.384 1154.88 916.283C1160.78 921.662 1176.8 920.665 1180.57 927.205C1177.18 929.735 1170.05 928.759 1165.93 928.168C1157.04 926.893 1150.28 920.845 1143.47 915.427L1139.83 913.127L1138.52 913.553C1138.27 920.081 1143.62 925.945 1143.28 932.65L1142.03 933.749C1138.99 933.252 1137.02 932.502 1135.2 929.908C1125.6 916.24 1138.18 908.261 1116.05 899.715C1110.81 897.695 1105.36 895.573 1099.85 894.485C1092.87 893.11 1085.68 893.617 1079.64 897.653C1073.66 901.646 1070.1 908.35 1068.89 915.324C1066.02 931.799 1071.47 957.611 1077.37 973.261C1167.85 963.408 1257.16 922.502 1325.68 862.978C1312.11 862.957 1298.54 862.048 1285.15 859.779C1265.77 856.495 1244.92 849.459 1225.23 851.581ZM937.22 855.05C945.457 861.733 963.525 879.274 973.036 880.715C975.003 880.275 975.604 880.429 976.885 878.804C978.121 871.252 979.146 863.708 980.037 856.107C965.787 855.74 951.471 855.056 937.22 855.05ZM1062.94 856.096C1062.91 861.647 1061.73 871.812 1066.09 876.084C1067.8 877.759 1069.55 878.173 1071.87 877.876C1078.53 877.021 1086.48 869.553 1091.96 865.571C1097.25 862.341 1102.51 859.04 1107.91 855.993C1092.92 855.998 1077.93 855.872 1062.94 856.096ZM1005.13 890.547C1004.06 895.6 1001.25 907.071 1004.15 911.484C1004.52 912.063 1004.92 912.459 1005.46 912.886C1007.87 906.846 1008.48 898.202 1005.88 892.125C1005.65 891.587 1005.4 891.07 1005.13 890.547ZM1061.17 899.73C1057.36 904.517 1055.32 908.998 1056.07 915.225C1056.4 917.998 1056.91 920.816 1058.11 923.354C1061.04 919.822 1061.77 906.251 1061.54 901.34C1061.51 900.589 1061.39 900.361 1061.17 899.73ZM990.903 926.531C991.317 929.94 991.374 934.745 994.526 936.897C994.771 937.064 995.031 937.207 995.284 937.362C994.822 934.419 994.6 929.075 992.103 927.221C991.637 926.874 991.471 926.824 990.903 926.531ZM1053.26 946.706C1051.89 952.301 1050.86 959.701 1054.23 964.834C1055.17 966.27 1056.31 966.938 1057.86 967.575C1057.09 961.865 1056.57 951.205 1053.26 946.706ZM995.253 948.695C993.905 953.576 990.434 967.046 992.751 971.376C993.104 972.037 993.036 971.843 993.757 972.446C995.89 966.165 999.373 955.98 996.294 949.65L995.253 948.695ZM1022.29 958.762C1021.87 964.211 1020.37 971.332 1024.02 975.812L1025.84 976.241C1025.29 971.868 1025.19 961.867 1022.29 958.762Z"/><path fill="#F4F1BB" transform="scale(0.195312 0.195312)" d="M895.218 178.912C892.909 179.472 892.425 179.492 890.046 179.441C885.041 169.4 878.084 148.336 875.369 137.081C874.565 133.747 876.895 131.705 878.804 129.449L882.906 131.114C887.666 135.679 897.31 167.345 899.5 174.978C898.713 177.636 898.222 177.185 895.218 178.912Z"/><path fill="#F4F1BB" transform="scale(0.195312 0.195312)" d="M1140.09 182.114C1142.95 172.033 1154.84 136.351 1160.83 129.39C1163.21 129.663 1164.07 129.959 1166.38 130.662C1166.99 131.457 1168.06 132.539 1168.09 133.325C1168.33 141.104 1151.8 183.544 1148.96 187.061L1140.09 182.114Z"/><path fill="#F4F1BB" transform="scale(0.195312 0.195312)" d="M931.144 148.769L931.509 148.146L931.144 148.769Z"/><path fill="#F4F1BB" transform="scale(0.195312 0.195312)" d="M1215.79 239.678C1212.06 239.084 1210.11 238.937 1206.67 237.288C1216.04 222.423 1224.78 207.719 1233.4 192.422C1236.98 186.085 1243.16 174.23 1248.07 169.398C1252.82 170.453 1253.85 170.716 1255.27 175.369C1254.57 180.564 1222.17 236.767 1218.06 240.318L1215.79 239.678Z"/><path fill="#F4F1BB" transform="scale(0.195312 0.195312)" d="M825.809 240.928L823.822 241.476C818.983 238.891 792.296 189.96 789.065 182.003C787.912 179.162 789.486 177.153 790.784 174.638C792.521 174.773 794.291 175.046 796.023 175.276C800.598 177.932 826.986 228.295 830.741 236.318C829.776 239.078 828.744 238.988 825.809 240.928Z"/><path fill="#F4F1BB" transform="scale(0.195312 0.195312)" d="M1256.95 304.185C1263.37 293.542 1275.51 278.447 1283.45 268.041C1295.2 252.633 1307.7 235.478 1319.99 220.631C1322.62 220.642 1323.46 220.911 1326.02 221.573C1326.88 222.471 1327.91 223.186 1328 224.151C1328.19 226.274 1328.19 227.428 1326.98 229.276C1320.51 239.198 1312.67 248.993 1305.47 258.414L1263.82 312.451C1260.81 310.968 1259.08 307.307 1256.95 304.185Z"/><path fill="#F4F1BB" transform="scale(0.195312 0.195312)" d="M782.15 307.008C780.117 308.097 779.678 308.213 777.423 308.719C767.216 298.981 727.009 243.633 715.7 228.319C714.89 227.221 716.818 223.014 717.535 221.438C719.772 221.546 723.466 221.412 724.906 223.263C745.211 249.374 766.334 275.81 785.917 302.426C785.353 305.05 784.575 304.967 782.15 307.008Z"/><path fill="#F4F1BB" transform="scale(0.195312 0.195312)" d="M743.467 369.743C741.365 371.036 742.474 370.792 740.034 370.516C729.905 361.809 654.552 297.034 650.665 290.17C650.361 285.821 650.587 286.901 652.792 282.516C654.391 282.589 657.614 282.783 658.798 283.884C687.591 310.657 721.431 336.761 748.847 364.621C748.297 367 745.951 367.924 743.467 369.743Z"/><path fill="#F4F1BB" transform="scale(0.195312 0.195312)" d="M1293.52 365.509C1323.74 338.322 1353.21 310.495 1382.87 282.714C1386.5 282.687 1387.11 282.603 1390.05 284.845C1391.11 287.585 1391.68 289.824 1389.2 292.204C1360.99 319.275 1332.1 347.687 1302.57 373.252C1301.14 372.457 1295.11 366.918 1293.52 365.509Z"/><path fill="#F4F1BB" transform="scale(0.195312 0.195312)" d="M1243.84 325.273L1255.65 324.59L1255.71 325.251C1253.16 329.246 1245.83 337.45 1242.44 341.413C1238.84 342.03 1235.18 342.772 1231.58 343.463C1231.03 340.734 1241.56 328.221 1243.84 325.273Z"/><path fill="#F4F1BB" transform="scale(0.195312 0.195312)" d="M1327.41 426.362C1360.08 402.736 1400.49 377.642 1434.66 354.728C1439.95 354.944 1442.65 356.106 1442.13 361.64C1439.44 367.115 1346.32 427.43 1334.73 435.199L1333.25 435.092C1330.51 433.365 1328.96 429.404 1327.41 426.362Z"/><path fill="#F4F1BB" transform="scale(0.195312 0.195312)" d="M711.829 433.055C710.45 434.322 710.42 434.217 708.661 434.571L644.036 392.986C636.831 388.395 603.589 368.637 601.676 363.524C601.714 360.523 603.213 359.106 605.045 356.619C605.328 356.661 605.61 356.707 605.892 356.746C613.272 357.756 705.961 419.274 718.138 428.447C717.387 430.132 713.637 431.973 711.829 433.055Z"/><path fill="#F4F1BB" transform="scale(0.195312 0.195312)" d="M795.682 418.862C789.394 414.019 771.276 400.206 766.532 394.759C768.422 393.291 772.712 392.813 775.312 392.325C776.527 391.822 776.662 391.952 778.043 391.856C781.65 394.734 802.695 411.616 803.823 414.413C802.335 416.468 798.264 417.772 795.682 418.862Z"/><path fill="#F4F1BB" transform="scale(0.195312 0.195312)" d="M1237.5 415.697C1246.6 407.778 1255.37 399.914 1264.28 391.775C1267.1 392.348 1273.37 394.404 1276.4 395.294C1269.24 400.252 1256.99 410.732 1250.68 416.488C1247.18 416.007 1241.2 415.886 1237.5 415.697Z"/><path fill="#F4F1BB" transform="scale(0.195312 0.195312)" d="M1223.87 414.348C1221.53 414.271 1219.04 414.07 1216.69 413.925L1215.75 412.615L1218.5 409.931C1221.82 409.855 1222.65 409.846 1225.99 410.484L1226.41 411.858L1223.87 414.348Z"/><path fill="#F4F1BB" transform="scale(0.195312 0.195312)" d="M1265.55 432.098L1265.41 429.662C1269.68 423.772 1278.14 421.033 1284.88 418.114C1284.54 424.078 1270.68 429.506 1265.55 432.098Z"/><path fill="#F4F1BB" transform="scale(0.195312 0.195312)" d="M1360.25 485.644C1372.82 478.171 1393.55 469.264 1407.32 463.066L1468.85 434.966C1473.88 436.134 1476.22 437.912 1475.1 443.064C1470.68 449.116 1384.55 485.331 1370.46 492.442L1360.25 485.644Z"/><path fill="#F4F1BB" transform="scale(0.195312 0.195312)" d="M680.761 484.445C668.481 485.942 660.672 486.972 649.447 480.773C638.511 474.732 573.32 451.468 568.125 444.177C567.418 441.371 568.513 439.454 569.564 436.779C582.116 436.674 632.533 463.188 647.643 468.44C652.714 470.202 678.242 480.655 682.135 483.418L680.761 484.445Z"/><path fill="#F4F1BB" transform="scale(0.195312 0.195312)" d="M714.739 486.424C712.036 485.785 709.274 485.561 707.606 483.58C710.083 481.917 725.402 480.868 729.462 480.403C732.033 480.387 731.052 480.193 733.383 481.697L733.539 483.876C729.612 488.746 720.184 487.39 714.739 486.424Z"/><path fill="#F4F1BB" transform="scale(0.195312 0.195312)" d="M1332.27 485.55C1322.48 488.543 1313.92 488.213 1307.41 479.805C1314.55 479.862 1328.05 478.636 1332.27 485.55Z"/><path fill="#F4F1BB" transform="scale(0.195312 0.195312)" d="M1368.19 508.676L1366.73 508.608C1365.58 504.408 1364.27 496.043 1364.38 491.722C1372.81 496.425 1370.26 500.38 1368.19 508.676Z"/><path fill="#F4F1BB" transform="scale(0.195312 0.195312)" d="M1271.5 514.517L1274.95 516.312L1270.89 517.605L1271.5 514.517Z"/><path fill="#F4F1BB" transform="scale(0.195312 0.195312)" d="M1270.17 517.748L1270.89 517.605L1270.17 517.748Z"/><path fill="#F4F1BB" transform="scale(0.195312 0.195312)" d="M732.005 547.77L733.239 546.817L732.005 547.77Z"/><path fill="#F4F1BB" transform="scale(0.195312 0.195312)" d="M734.9 549.244L735.41 548.023L734.9 549.244Z"/><path fill="#F4F1BB" transform="scale(0.195312 0.195312)" d="M734.9 549.244L735.995 549.743L734.9 549.244Z"/><path fill="#F4F1BB" transform="scale(0.195312 0.195312)" d="M750.514 550.117L750.233 549.145L750.514 550.117Z"/><path fill="#F4F1BB" transform="scale(0.195312 0.195312)" d="M1469.05 551.695L1470.32 551.454L1469.05 551.695Z"/><path fill="#F4F1BB" transform="scale(0.195312 0.195312)" d="M1466.7 552.913L1467.93 552.363L1466.7 552.913Z"/><path fill="#F4F1BB" transform="scale(0.195312 0.195312)" d="M1465.57 552.855L1466.7 552.913L1466.12 554.104L1465.57 552.855Z"/><path fill="#F4F1BB" transform="scale(0.195312 0.195312)" d="M1464.76 554.146L1466.12 554.104L1466.48 555.842L1464.97 555.986L1464.76 554.146Z"/><path fill="#F4F1BB" transform="scale(0.195312 0.195312)" d="M1463.78 556.252L1464.97 555.986L1463.78 556.252Z"/><path fill="#F4F1BB" transform="scale(0.195312 0.195312)" d="M553.073 571.077L551.587 572.393L550.7 573.122L548.599 573.739C548.6 575.151 548.467 575.579 549.081 576.85C547.121 579.731 546.54 579.496 547.341 583.165C548.018 586.264 547.035 589.783 548.509 592.672L550.427 590.793C554.561 591.554 553.245 591.837 557.053 590.561C561.218 585.682 559.579 576.954 564.405 576.393C565.241 580.665 560.914 593.821 556.115 596.807C552.105 597.871 548.798 596.682 545.704 594.086C542.389 585.982 543.287 580.524 546.027 572.292C548.549 564.715 558.268 565.219 562.093 570.591C562.032 574.713 558.794 576.33 555.57 578.587C559.063 581.866 557.984 579.054 559.759 583.275C557.877 586.997 554.878 587.511 550.975 588.709L549.77 587.637C550.559 577.11 547.063 586.239 549.081 576.85L550.7 573.122L551.587 572.393L553.073 571.077L555.712 570.356C555.262 570.37 553.614 570.914 553.073 571.077ZM558.541 571.909L559.101 572.21L558.541 571.909ZM552.347 576.407L551.416 577.852L552.702 577.524L553.539 576.121L552.347 576.407Z"/><path fill="#F4F1BB" transform="scale(0.195312 0.195312)" d="M1483.46 568.535L1485.3 566.656L1488.75 566.801C1490.69 569.34 1490.35 572.148 1490.49 575.503L1492.82 568.677L1494.04 568.496L1494.43 571.382C1498.17 573.739 1497.72 573.395 1498.94 577.952C1499.73 580.92 1500.74 584.341 1499.12 586.986C1496.98 586.678 1496.41 586.692 1494.48 585.8L1493.92 584.606L1493.01 584.141L1493.92 584.606L1494.48 585.8C1496.6 588.092 1498.32 589.079 1498.68 591.681L1496.97 592.533C1495.27 591.056 1494.17 590.002 1492.63 588.364L1492.21 589.464C1493.48 590.775 1494.67 592.004 1496.01 593.257C1492.75 596.073 1487.56 595.88 1484.35 593.031L1483.88 591.122L1484.7 590.041L1483.88 591.122C1483.16 590.956 1482.3 590.483 1481.62 590.159L1481.93 588.115C1480.22 585.149 1478.14 579.766 1479.62 576.473L1482.6 578.001L1483.16 579.376L1483.77 579.995L1483.16 579.376L1482.6 578.001C1481.14 575.447 1480.53 575.374 1480.72 572.782L1482.95 571.96L1484.6 573.44C1486.08 575.645 1484.73 576.712 1487.23 579.025C1487.62 575.405 1487.48 574.506 1487.03 570.96L1487.79 570.005L1487.03 570.96L1484.6 573.44L1482.95 571.96L1483.46 568.535ZM1486.2 587.477L1485.31 588.935L1486.2 587.477L1486.7 586.005L1486.2 587.477ZM1494.35 575.5L1495.18 575.5L1494.35 575.5ZM1490.33 578.594L1489.25 581.547C1491.39 582.359 1490.53 582.216 1493.05 581.5L1494.91 579.816C1493.5 578.563 1492.26 578.73 1490.33 578.594ZM1486.31 582.912L1487.45 583.5L1486.31 582.912ZM1489.26 585.507L1489.84 586.937L1489.26 585.507ZM1489.08 590.418C1489.26 590.715 1489.77 591.686 1490.01 591.796L1489.08 590.418Z"/><path fill="#F4F1BB" transform="scale(0.195312 0.195312)" d="M1483.46 568.535L1482.16 568.152L1483.46 568.535Z"/><path fill="#F4F1BB" transform="scale(0.195312 0.195312)" d="M719.005 605.04L721.11 606.101C719.269 625.123 680.46 609.003 699.133 581.546C699.361 580.383 699.326 580.398 700.049 579.443C711.216 564.692 726.091 581.369 724.872 594.461C724.539 598.028 723.992 603.513 721.11 606.101L719.005 605.04ZM708.461 598.096L708.262 598.995L708.461 598.096L711.497 595.857L713.871 598.262L714.65 597.788L715.698 590.504L714.804 589.298C708.967 590.468 708.453 592.74 708.461 598.096ZM704.004 608.902C707.482 606.691 712.648 609.459 715.573 607.489C713.84 606.936 712.043 606.495 710.415 605.687L711.784 604.239L710.73 602.904C700.199 602.547 706.876 594.174 702.54 587.626C705.01 586.299 704.593 586.949 705.947 584.837C703.957 581.89 704.988 582.532 702.182 581.794L700.596 583.703C698.852 591.892 701.122 597.44 700.274 602.628L701.91 604.09L704.004 608.902L703.005 609.92L704.004 608.902ZM705.734 576.93L704.893 579.469L706.104 580.626C708.742 580.383 710.123 580.198 712.703 579.61L713.47 578.318C711.252 576.578 708.724 576.971 705.734 576.93ZM709.029 580.87C708.138 583.571 707.35 584.422 707.963 586.86L712.267 582.651C715.472 583.21 716.229 583.987 718.395 582.616C715.731 580.356 712.614 580.85 709.029 580.87ZM714.407 585.986L715.016 586.5L714.407 585.986ZM717.562 584.269C719.794 589.897 718.188 591.755 718.293 598.327C717.264 599.92 716.252 601.416 715.377 603.106L716.055 603.646C723.361 601.593 723.187 588.13 717.562 584.269ZM697.764 590.5L699.49 590.5L697.764 590.5ZM706.33 595.914L707.49 596.5L706.33 595.914Z"/><path fill="#F4F1BB" transform="scale(0.195312 0.195312)" d="M1329.91 586.024C1333.45 582.187 1329.25 581.698 1330.82 576.331C1334.14 576.679 1334.3 576.989 1336.83 579.755C1336.83 582.306 1335.6 582.41 1335.45 585.901L1338.09 587.904C1339.01 584.865 1338.81 582.122 1336.83 579.755C1338.19 576.651 1337.34 577.323 1339.85 576.197C1341.13 577.61 1341.12 578.383 1341.52 580.229C1343.81 580.711 1344.02 580.558 1346.36 579.982C1346.25 584.188 1340.76 585.088 1340.39 589.819C1345.08 588.246 1343.5 585.796 1349.04 585.027L1350.42 586.572C1349.02 589.927 1349.42 588.298 1346.01 590.515L1350.19 591.042L1351.39 592.794C1350.93 594.917 1350.47 597.024 1350.05 599.158C1348.28 600.057 1348.98 599.837 1346.63 599.354L1346.49 600.879L1348.9 603.728L1348.34 605.508C1345.78 606.583 1345.02 606.351 1342.23 606.186C1342.17 608.077 1342.5 608.618 1343.15 610.351C1341.65 612.472 1342.44 611.788 1340.01 612.78L1338.44 611.462C1338.29 608.764 1338.37 606.802 1337.41 604.272C1327.48 602.95 1331.45 599.527 1324.3 598.316L1323.24 600.11C1328.33 601.947 1327.27 600.698 1330.64 604.366L1331.65 608.491L1331.95 608.106C1333.08 606.645 1333.2 606.47 1334.65 605.377C1337.63 607.874 1336.5 610.143 1335.49 613.535C1331.49 614.393 1320.92 606.368 1318.65 601.701L1318.6 599.097C1320.16 597.942 1320.94 597.232 1322.72 596.496L1318.97 595.833L1317.75 593.941L1318.28 592.111C1319.68 591.547 1320.43 591.155 1321.92 590.85C1322.36 591.505 1323.02 591.766 1323.79 592.253C1323.36 591.623 1322.66 591.323 1321.92 590.85L1319.38 588.237L1319.55 586.181C1322.74 585.228 1325.26 585.533 1327.58 588.295C1328.09 593.8 1326.68 594.549 1329.49 597.295C1331.13 597.365 1332.35 597.504 1333.98 597.192C1338.19 596.46 1338.78 592.456 1337.3 589.004L1335.1 588.494C1333.82 588.896 1333.45 589.331 1332.4 590.16L1334.78 594.475L1333.98 597.192C1331.82 597.248 1331.77 597.189 1329.92 595.951C1328.78 593.448 1328.88 588.597 1329.91 586.024ZM1340.17 594.03C1341.56 595.435 1342.65 595.948 1344.69 596.104C1344.81 596.113 1344.93 596.06 1345.05 596.038C1343.8 594.004 1343.45 594.197 1341.25 593.562L1340.17 594.03ZM1340.23 598.822C1338.87 599.048 1337.83 599.204 1336.65 599.994L1336.38 601.763L1337.86 602.389L1338.43 601.201L1342.39 602.382L1343.54 601.587C1342.5 600.192 1341.84 599.529 1340.23 598.822ZM1326.61 606.543L1326.34 606.536L1326.61 606.543Z"/><path fill="#F4F1BB" transform="scale(0.195312 0.195312)" d="M1329.91 586.024C1325.89 585.855 1327.16 586.476 1324.78 584.089C1324.64 582.31 1324.38 580.819 1324.76 579.079C1328.41 580.552 1329.35 581.893 1329.91 586.024Z"/><path fill="#F4F1BB" transform="scale(0.195312 0.195312)" d="M1603.76 776.505C1517.62 800.589 1405.31 813.16 1316.01 820.386C1084.19 839.143 847.822 837.124 616.87 808.798C551.895 800.829 480.636 790.795 418.575 769.958C409.291 766.841 386.603 758.253 382.126 748.762C380.914 746.194 380.726 740.26 381.764 737.508C388.202 720.446 395.91 702.778 402.894 685.981L441.517 591.598C467.199 612.962 486.254 613.416 518.858 617.911C687.245 641.212 856.303 649.428 1026.2 648.736C1190.92 648.365 1356.02 640.196 1519.41 618.659C1553.16 614.21 1573.15 613.591 1600.88 592.505L1640.93 687.079C1645.1 697.072 1666.5 743.151 1661.14 751.242C1652.35 764.498 1619.12 772.09 1603.76 776.505ZM1601 685L1599.71 685.702C1507.15 710.861 1409.59 716.939 1314.23 723.745C1100.66 738.989 887.267 741.429 673.99 720.269C598.023 712.731 528.826 705.201 454.12 688.729L453.005 688.179L454.12 688.729C470.996 699.05 512.364 706.318 532.237 711.088C539.928 712.934 549.893 714.154 556.977 717.518C516.266 713.6 472.301 706.498 433.714 692.659C456.037 706.819 482.704 713.628 508.257 719.464C513.188 720.589 533.795 724.479 537.098 727.261C531.609 727.126 525.409 725.797 519.906 724.894C487.804 719.625 455.662 713.813 424.859 703.114C454.831 723.412 497.166 727.451 530.483 737.575L530.422 738.044C493.64 734.469 450.751 725.408 415.88 713.033C440.25 729.101 471.427 736.703 499.743 743.161C509.233 745.325 522.314 747.159 531.297 749.911C501.551 749.777 438.045 735.661 409.957 724.808C439.632 743.272 494.156 757.632 529.452 762.434C515.985 763.122 511.348 760.728 498.468 758.948C464.982 754.318 434.094 747.855 402.408 735.61C426.885 752.08 450.859 757.933 479.188 764.88C485.837 766.51 496.22 767.334 501.523 769.663C493.334 769.749 485.442 767.737 477.409 766.813C451.188 763.799 426.351 757.798 401.457 748.853C437.635 773.673 533.382 787.994 577.663 794.2C784.84 823.236 997.75 829.032 1206.57 817.97C1313.88 812.285 1421.39 803.613 1527.14 783.892C1547.55 780.086 1616.17 765.104 1631.76 755.733L1632.99 755.201L1631.76 755.733C1626.62 756.099 1620.51 758.301 1615.4 759.387C1600.12 762.64 1579.49 769.856 1564.19 770.59C1581.79 767.095 1621.18 753.054 1634.76 742.261L1635.39 741.755L1635.99 741.243L1635.39 741.755C1630.03 742.943 1620.84 746.543 1614.99 748.213C1597.56 753.181 1555.07 765.657 1538.18 765.519C1538.58 765.034 1612.14 744.616 1628.98 729.177C1629.14 729.031 1629.3 728.878 1629.45 728.729L1629.99 728.207L1629.45 728.729C1624.66 729.618 1608.53 735.567 1602.39 737.513C1582.21 743.908 1535.74 756.406 1515.24 755.454C1519.16 753.271 1532.8 751.19 1538.27 749.787C1562.44 743.582 1607.26 732.128 1624.83 715.519L1625.84 715.122L1624.83 715.519C1617.8 717.213 1602.46 723.234 1594.13 725.698C1566.57 733.848 1537.59 740.753 1508.82 742.158C1548.46 731.973 1584.21 726.413 1620.05 702.83C1575.57 718.096 1552.05 724.237 1504.78 729.306C1510.69 726.706 1528.39 722.911 1535.47 721.185C1559.72 715.269 1591.51 705.631 1612.17 692.095C1575.11 703.87 1528.06 717.525 1489.08 716.806C1515.3 711.384 1577.1 698.132 1599.71 685.702L1601 685L1602.99 684.174L1601 685ZM449.005 686.256L450.48 686.719L451.989 687.879L450.48 686.719L449.005 686.256ZM841.602 655.035C839.374 657.029 836.407 659.003 835.689 662.009C837.844 663.283 840.139 662.687 842.607 662.57C844.581 660.703 849.273 657.724 849.793 655.356C846.933 654.587 844.513 654.791 841.602 655.035ZM739.982 661.935L738.985 709.054C744.764 709.638 759.079 712.633 763.61 708.992C763.872 708.782 764.11 708.545 764.36 708.321L764.469 706.301C759.537 702.108 748.239 704.67 746.64 700.244C746.679 697.039 746.163 692.309 747.623 689.485C751.856 688.068 755.661 690.717 759.698 688.848C760.695 686.789 760.525 686.777 759.778 684.587C756.174 682.058 751.566 682.606 747.212 682.239L747.329 668.841C752.631 669.288 758.042 670.18 763.135 668.247L764.116 666.347C757.148 661.611 748.076 662.057 739.982 661.935ZM1256.56 662.592C1254.9 671.682 1245.5 704.496 1247.91 711.143L1249.67 712.413C1251.84 711.77 1252.28 711.681 1253.39 709.577C1254.91 706.701 1255.55 702.843 1256.35 699.683C1258.78 699.178 1261.19 698.833 1263.65 698.548C1263.74 698.698 1263.83 698.844 1263.91 698.996C1265.69 702.342 1264.6 706.783 1267.38 709.389L1269.78 709.464C1271.76 707.234 1271.96 705.43 1271.83 702.432C1271.41 692.608 1266.23 672.513 1262.55 663.257L1256.56 662.592ZM778.789 664.072C774.933 665.928 771.316 667.849 769.941 672.248C768.835 675.789 769.973 679.084 771.767 682.15C775.709 688.886 786.426 695.063 786.892 702.867C785.107 704.058 783.137 704.942 780.882 704.558C775.174 703.585 778.935 697.178 769.652 698.222C768.493 699.854 768.154 700.14 768.612 702.254C769.334 705.581 772.714 709.233 775.647 710.831C777.892 712.055 780.392 712.379 782.897 712.612C787.074 711.509 791.615 709.904 793.876 705.89C795.198 703.546 795.088 701.002 794.261 698.52C791.321 689.694 776.998 681.553 778.057 672.658L779.371 671.481C783.54 673.188 788.584 676.836 792.954 677.144L794.087 676.306C793.997 673.459 792.888 669.769 790.803 667.71C787.622 664.567 782.994 664.303 778.789 664.072ZM1239.35 663.694C1237.02 675.819 1235.02 687.976 1233.06 700.165C1231.22 689.175 1230.31 675.684 1226.16 665.417C1223.86 664.726 1222.41 664.789 1220.07 665.307C1219.8 671.262 1222.24 678.221 1223.66 684.038C1225.24 691.924 1226.56 704.954 1230.54 711.762L1233.26 712.875C1238.1 707.336 1245.85 672.01 1245.52 664.255C1243.45 663.986 1241.44 663.726 1239.35 663.694ZM798.84 665.136L798.997 671.069C803.481 675.241 807.107 669.052 807.685 682.98C808.007 690.717 804.589 707.525 808.721 713.678L811.649 714.167L814.589 711.801C814.733 710.281 814.914 708.779 814.904 707.25C814.834 696.699 813.498 684.369 815.445 674.083C818.767 671.962 821.628 674.258 824.675 671.696C824.86 669.173 824.548 668.942 823.15 666.787C817.868 664.324 804.883 665.01 798.84 665.136ZM1205.71 664.764C1205.6 679.606 1203.85 696.466 1206.05 711.103C1208.07 712.774 1210.34 712.446 1212.83 712.459C1212.82 705.064 1214.63 669.673 1211.47 665.384C1209.54 665.089 1207.67 664.838 1205.71 664.764ZM1155.2 665.979C1150.59 668.444 1147.5 670.293 1145.89 675.552C1143.09 684.707 1142.61 700.281 1147.17 708.741C1148.63 711.438 1150.98 713.898 1154.03 714.674C1156.02 715.181 1158.2 715.202 1160.24 715.175C1164.31 713.354 1166.94 711.541 1168.56 707.231C1171.94 698.284 1172.15 681.558 1168.17 672.941C1166.9 670.199 1164.94 667.892 1162.06 666.771C1159.87 665.917 1157.51 665.904 1155.2 665.979ZM1174.57 666.453C1174.71 668.903 1174.32 670.89 1175.95 672.794C1179.07 672.955 1181.15 672.384 1183.43 674.612C1185.45 684.727 1180.4 705.142 1185.39 712.912C1187.63 713.77 1188.06 713.41 1190.31 712.782C1191.16 710.772 1191.13 709.409 1190.98 707.25C1190.82 696.74 1189.22 683.866 1191.42 673.688C1193.59 672.519 1195.45 672.541 1197.85 672.457C1199.38 670.519 1199.33 670.371 1199.3 667.881C1197.07 665.76 1196.18 665.75 1193.09 665.82C1186.92 665.959 1180.74 666.222 1174.57 666.453ZM829.162 666.821L828.17 713.759C835.339 714.015 843.494 715.078 850.568 714.141C852.161 712.466 852.235 712.228 852.572 709.933L851.407 708.244C846.644 707.472 840.925 708.206 836.55 706.359L835.878 705.01C835.863 701.714 835.35 698.133 837.564 695.438C841.127 692.936 846.502 695.379 847.767 691.409L847.261 688.843C843.744 686.528 838.233 689.031 836.78 683.424C836.105 680.819 836.761 676.812 836.939 674.084C842.278 674.11 847.259 674.388 852.254 672.176L852.153 669.577C844.227 666.514 837.544 666.735 829.162 666.821ZM855.961 667.2L856.147 673.063C860.761 677.183 864.733 670.867 865.377 680.661C866.032 690.62 861.39 706.652 866.738 715.399L868.835 716.146C870.981 714.238 872.292 713.343 872.53 710.219C872.58 709.566 872.579 708.903 872.581 708.248C872.579 698.189 871.164 685.814 873.51 676.146C876.886 675.084 880.701 674.306 883.182 671.638L883.339 669.999C878.306 665.604 862.975 667.308 855.961 667.2ZM887.153 667.769C887.068 681.957 885.078 700.609 887.471 714.385C889.585 716.285 892.233 716.035 894.937 716.169C895.023 700.898 896.387 684.358 894.545 669.25C892.416 667.541 889.767 667.841 887.153 667.769ZM910.848 668.079C906.816 670.61 904.73 672.398 903.574 677.144C901.41 686.031 900.107 703.357 905.106 711.187C906.62 713.559 908.923 715.366 911.718 715.931C915.378 716.672 920.507 716.032 923.61 713.899C925.059 712.903 926.18 711.357 926.443 709.572C926.825 706.981 926.306 704.501 925.526 702.042C924.149 700.93 923.469 700.647 921.722 700.357L920.247 701.291L920.135 702.795C918.919 705.847 918.692 706.929 916.051 709.002C914.57 708.883 913.621 709.134 912.586 707.954C908.526 703.328 908.851 690.76 909.528 684.728C909.895 681.463 910.548 678.904 912.624 676.295L914.535 675.32C917.995 677.775 921.351 682.197 925.302 683.388C926.077 682.77 926.555 682.725 926.676 681.696C927.026 678.708 926.762 674.859 924.92 672.348C922.896 669.588 918.809 668.239 915.516 668.023C913.966 667.921 912.397 667.998 910.848 668.079ZM1083.05 668.124C1079.1 669.253 1076.27 670.293 1074.18 674.124C1069.9 681.938 1070.12 698.295 1072.85 706.702C1073.96 710.129 1075.73 713.713 1079.1 715.428C1081.28 716.537 1084.29 716.51 1086.69 716.661C1090.91 714.645 1093.8 713.02 1095.49 708.387C1098.86 699.136 1099.06 683.212 1094.74 674.409C1093.69 672.281 1091.84 669.955 1089.51 669.238C1087.46 668.607 1085.18 668.382 1083.05 668.124ZM1104.69 668.158C1104.96 683.208 1103.57 699.412 1105.48 714.265C1107.33 715.798 1107.67 715.633 1110.11 715.677C1110.87 715.025 1111.96 714.468 1112.04 713.456C1112.73 704.355 1111.88 695.132 1112.39 686C1113.66 692.094 1115.13 705.798 1120.18 709.453C1120.3 709.54 1120.43 709.615 1120.55 709.696C1123 708.867 1123.47 707.78 1124.55 705.529C1127.38 699.594 1128.24 691.942 1129.54 685.519C1129.8 691.471 1130.13 697.422 1129.99 703.381C1129.88 706.824 1129.16 711.476 1130.92 714.482C1133.51 715.398 1133.93 715.204 1136.62 714.477C1138.61 705.931 1137.87 678.284 1136.8 669.035C1134.71 667.388 1132.66 668.027 1130.07 668.109C1124.36 672.827 1122.3 691.762 1121.13 699.425C1119.06 690.807 1118.35 675.603 1112.41 669.01C1109.97 667.613 1107.4 668.033 1104.69 668.158ZM941.557 668.927C939.968 676.42 931.269 711.215 932.202 715.642C934.392 716.794 934.729 717.046 937.157 716.774C940.56 713.246 939.026 706.304 944.456 706.174C946.192 706.132 947.932 706.138 949.669 706.147C950.343 709.268 950.784 714.078 953.372 716.121C955.804 716.201 955.799 716.225 957.621 714.617C958.828 710.136 951.391 675.125 949.365 670.009C946.902 668.527 944.332 668.866 941.557 668.927ZM994.443 668.827C992.808 677.055 983.833 710.531 985.438 715.778L987.201 717.484C989.469 717.254 989.775 717.108 991.56 715.684C992.157 713.024 992.801 710.416 993.578 707.801C996.308 706.279 999.614 706.664 1002.67 706.65C1003.09 709.758 1003.16 714.135 1005.57 716.338C1007.58 716.706 1008.88 717.044 1010.79 716.165C1012.32 709.459 1004.57 677.862 1002.11 670.098C999.873 668.576 997.122 668.961 994.443 668.827ZM1016.19 668.767C1015.95 679.604 1012.5 705.536 1020.12 713.608C1022.39 716.006 1025.11 717.033 1028.35 717.041C1031.46 717.049 1034.4 715.981 1036.5 713.621C1043.64 705.609 1039.99 685.169 1040.2 674.75L1039.87 670.589C1038.2 669.173 1037.36 668.523 1035.14 668.361C1033.21 670.099 1032.99 671.392 1032.81 673.991C1032.15 683.919 1035.91 699.754 1030.54 708.313C1028.52 709.524 1028.52 709.532 1026.22 709.055C1022.6 705.232 1023.5 698.236 1023.63 693.314C1023.76 688.315 1026.04 673.125 1022.95 669.354C1020.7 669.114 1018.46 668.85 1016.19 668.767ZM1043.86 668.908C1043.8 671.625 1043.12 673.8 1044.93 675.926L1051.46 676.067C1056.12 681.425 1047.78 716.774 1056.3 716.355C1057.29 716.307 1058.39 715.881 1059.33 715.579C1059.93 713.947 1060.05 712.989 1059.97 711.25C1059.88 700.431 1058.28 687.232 1060.68 676.797C1063.7 675.737 1067.32 674.991 1069.27 672.278L1069.18 670.89C1064.49 666.829 1050.32 668.809 1043.86 668.908ZM1611.22 692.5L1612.32 692.5L1611.22 692.5ZM435.354 693.5L436.49 693.5L435.354 693.5ZM425.398 703.5L426.49 703.5L425.398 703.5ZM1618.22 703.5L1619.3 703.5L1618.22 703.5ZM427.34 704.5L428.49 704.5L427.34 704.5ZM411.374 725.5L412.49 725.5L411.374 725.5ZM400.376 748.5L401.49 748.5L400.376 748.5ZM402.281 749.5L403.49 749.5L402.281 749.5Z"/><path fill="#F4F1BB" transform="scale(0.195312 0.195312)" d="M712.343 593.27L711.775 592.966L712.343 593.27Z"/><path fill="#F4F1BB" transform="scale(0.195312 0.195312)" d="M701.91 604.09L702.765 603.005L701.91 604.09Z"/><path fill="#F4F1BB" transform="scale(0.195312 0.195312)" d="M1159.4 709.154C1158.03 708.788 1156.42 708.414 1155.28 707.543C1153.49 706.175 1152.82 703.737 1152.42 701.622C1150.83 693.051 1150.79 679.738 1155.78 672.406L1159.05 673.083C1161.86 675.484 1162.54 677.076 1163.1 680.743C1164.38 689.107 1164.57 702.214 1159.4 709.154Z"/><path fill="#F4F1BB" transform="scale(0.195312 0.195312)" d="M1087.35 709.668L1082.95 709.161C1081.28 708.061 1080.39 706.838 1079.83 704.913C1077.64 697.36 1077.83 681.268 1081.73 674.379L1085.56 675.054C1087.14 676.387 1087.77 676.863 1088.53 678.867C1091.32 686.266 1090.8 702.224 1087.35 709.668Z"/><path fill="#F4F1BB" transform="scale(0.195312 0.195312)" d="M1261.93 693.962C1260.27 693.6 1259.19 693.183 1257.76 692.257C1256.39 688.156 1258.49 682.861 1259.53 678.783C1260 679.366 1260.18 679.805 1260.44 680.527C1261.75 684.25 1263.7 690.251 1261.93 693.962Z"/><path fill="#F4F1BB" transform="scale(0.195312 0.195312)" d="M946.976 701.146C945.646 700.785 944.388 700.23 943.114 699.711C941.505 694.964 943.914 688.371 945.046 683.593C945.361 684.254 945.617 684.91 945.834 685.609C947.399 690.645 949.484 696.309 946.976 701.146Z"/><path fill="#F4F1BB" transform="scale(0.195312 0.195312)" d="M1000.01 701.407C998.673 701.045 997.416 700.466 996.141 699.925C994.534 695.817 996.748 689.705 997.715 685.467C998.832 687.319 999.488 689.558 1000.13 691.617C1001.26 695.257 1001.81 698.03 1000.01 701.407Z"/><path fill="#F4F1BB" transform="scale(0.195312 0.195312)" d="M637.416 745.9C639.986 741.44 642.643 737.043 645.336 732.657C647.67 736.732 647.801 743.261 648.488 747.906L664.85 752.584C659.543 754.907 654.362 757.507 649.159 760.05C649.826 765.988 650.635 771.903 651.45 777.823C647.279 773.47 643.193 768.987 638.626 765.042C633.462 767.545 628.003 769.575 622.695 771.761L631.14 756.77C627.047 752.453 623.249 747.85 619.387 743.327L637.416 745.9Z"/><path fill="#F4F1BB" transform="scale(0.195312 0.195312)" d="M1394.54 748.451L1398.12 732.655C1401.37 735.559 1403.73 742.778 1405.67 746.808L1421 744.614L1412.15 756.637L1416.92 770.554C1412.46 768.805 1408.28 766.522 1403.58 765.431L1401.64 766.671C1398.1 770.517 1394.15 773.963 1390.28 777.475C1391.72 771.442 1392.65 765.33 1393.62 759.208C1388.07 757.151 1382.73 754.277 1377.4 751.703C1383.05 750.224 1388.77 749.361 1394.54 748.451Z"/><path fill="#F4F1BB" transform="scale(0.195312 0.195312)" d="M1043.03 749.324C1040.81 749.729 1039.74 750.127 1037.52 749.342C1037.78 746.296 1040.84 743.367 1042.74 741.04C1045.15 740.9 1047.13 740.894 1049.5 741.418C1049.48 744.074 1045.02 747.363 1043.03 749.324Z"/><path fill="#F4F1BB" transform="scale(0.195312 0.195312)" d="M759.435 763.319C761.416 758.22 763.332 753.303 766.123 748.576C768.831 750.946 770.35 760.064 771.388 763.765C777.166 764.532 782.921 765.447 788.679 766.349C783.903 769.552 778.779 772.239 773.755 775.03L777.563 793.51L764.586 782.157L763.433 781.345C758.392 782.698 752.746 787.36 748.327 790.233L754.443 773.702L742.639 763.287L759.435 763.319Z"/><path fill="#F4F1BB" transform="scale(0.195312 0.195312)" d="M871.336 780.112C871.29 784.967 872.065 792.153 869.895 796.518C869.136 798.043 868.63 797.958 867.107 798.514L865.101 797.201C864.157 795.375 863.563 793.559 863.301 791.518C862.593 785.994 862.828 752.586 865.367 749.266L869.612 749.055C876.703 748.762 883.277 749.129 888.712 754.34C891.516 757.029 893.296 760.831 893.332 764.738C893.366 768.596 891.613 772.271 888.861 774.923C883.505 780.084 878.335 780.214 871.336 780.112ZM871.625 755.901C871.443 760.811 870.233 768.194 872.867 772.41C875.563 773.509 878.057 773.314 880.8 772.137C881.377 771.889 881.93 771.562 882.465 771.235C883.933 768.167 885.526 765.069 884.462 761.583C883.852 759.58 882.336 758.121 880.492 757.209C877.684 755.818 874.679 755.863 871.625 755.901Z"/><path fill="#F4F1BB" transform="scale(0.195312 0.195312)" d="M1153.31 799.635C1151.24 799.351 1148.75 798.946 1146.85 798.013C1142.46 795.85 1140.08 791.189 1138.64 786.736C1135.7 777.659 1136.34 765.138 1140.94 756.691C1143.35 752.254 1146.23 750.593 1150.93 749.146C1153.07 749.384 1155.56 749.57 1157.55 750.384C1161.16 751.855 1163.65 755.694 1165.09 759.142C1168.77 768.017 1168.11 780.574 1164.43 789.356C1161.98 795.199 1159.08 797.32 1153.31 799.635ZM1150.94 755.36C1145.72 760.454 1144.65 767.423 1144.62 774.522C1144.59 779.186 1145.55 786.509 1148.81 790.124C1150.01 791.449 1151.58 792.288 1153.21 792.936C1158.5 787.494 1159.78 779.241 1159.71 771.836C1159.67 767.596 1159 760.586 1155.68 757.529C1154.31 756.263 1152.73 755.728 1150.94 755.36Z"/><path fill="#F4F1BB" transform="scale(0.195312 0.195312)" d="M1271.32 763.938C1272.26 758.765 1273.75 753.671 1275.07 748.586C1278.51 751.582 1280.38 759.257 1282.03 763.508L1300.83 761.438C1295.8 765.325 1290.89 769.403 1285.93 773.391L1292.76 790.173C1288.23 787.53 1283.89 784.515 1279.5 781.636L1278.64 781.251C1274.82 781.423 1267.21 789.189 1264.03 791.87L1268.69 774.818L1253.28 765.246C1259.29 764.525 1265.28 764.216 1271.32 763.938Z"/><path fill="#F4F1BB" transform="scale(0.195312 0.195312)" d="M916.252 800.285C913.547 800.121 911.555 800.383 909.234 798.891C907.601 783.291 908.869 766.556 908.952 750.83C912.023 751.022 913.907 750.729 916.469 752.5C918.579 767.5 916.518 785.082 916.252 800.285Z"/><path fill="#F4F1BB" transform="scale(0.195312 0.195312)" d="M942.05 765.632C942.213 775.305 943.065 785.79 942.385 795.412C942.199 798.044 941.178 798.905 939.364 800.584C937.255 800.616 937.268 800.562 935.735 799.322C933.815 784.484 934.991 768.011 935.347 752.999C937.049 751.274 939.229 751.335 941.571 750.883C946.788 755.048 952.802 777.05 956.076 784.319C955.997 775.204 954.496 764.401 955.655 755.48C955.935 753.325 956.304 753.325 957.964 751.996C960.296 751.857 960.647 751.527 962.538 753.036C964.56 767.637 963.505 784.062 963.051 798.841C961.324 801.098 959.644 800.905 956.958 801.491C951.098 795.165 945.258 774.302 942.05 765.632Z"/><path fill="#F4F1BB" transform="scale(0.195312 0.195312)" d="M988.644 779.307C988.762 785.483 989.946 794.78 987.684 800.49C985.691 801.139 984.01 800.718 981.997 800.372C978.23 795.134 980.509 759.911 980.534 751.79C983.402 751.842 984.797 751.649 987.31 753.171C989.71 758.69 988.405 765.996 988.303 771.979L1001.05 772.042C1000.99 766.62 999.66 758.765 1001.82 753.901C1004.07 752.101 1004.35 752.168 1007.25 752.104C1008.84 753.592 1008.63 754.53 1008.81 756.613C1009.39 763.283 1010.7 798.056 1007.28 802.173L1003.43 801.304C999.19 796.846 1001.06 785.39 1001.09 779.373L988.644 779.307Z"/><path fill="#F4F1BB" transform="scale(0.195312 0.195312)" d="M1027.63 800.974L1027.74 751.894C1034.76 752.046 1042.12 751.171 1049.08 752.021C1051 752.255 1051.68 752.1 1052.93 753.684C1052.75 755.919 1052.79 756.456 1051.47 758.225C1046.54 760.065 1040.2 759.18 1035 759.046L1035.02 772.023C1038.99 771.936 1044.6 771.101 1048.26 772.574C1049.39 774.977 1049.32 775.513 1049.02 778.176C1045.89 779.963 1039.83 778.449 1035.97 779.343C1034.43 781.558 1034.97 786.504 1034.94 789.247L1035.35 792.799C1040.42 795.932 1047.68 791.732 1052.98 794.749C1053.95 797.099 1053.79 797.654 1053.37 800.201C1049.47 802.801 1033 801.02 1027.63 800.974Z"/><path fill="#F4F1BB" transform="scale(0.195312 0.195312)" d="M1076.78 801.178C1073.68 800.973 1072.06 801.256 1069.52 799.404C1067.44 784.2 1069.12 767.034 1069.22 751.651C1071.6 751.726 1073.53 751.891 1075.81 752.649C1078.86 758.936 1076.86 791.994 1076.78 801.178Z"/><path fill="#F4F1BB" transform="scale(0.195312 0.195312)" d="M1116.03 797.519C1114.69 794.023 1113.45 790.422 1111.99 786.986C1110.75 784.086 1108.25 780.417 1105.26 779.208C1100.12 782.491 1105.21 794.928 1101.44 799.716C1098.97 800.419 1098.74 800.4 1096.33 799.511C1095.88 798.823 1094.99 797.803 1094.74 797.062C1093.54 793.6 1094.78 758.574 1094.8 751.958C1099.27 751.802 1104.01 751.405 1108.47 751.77C1112.81 752.126 1119.01 755.074 1121.73 758.498C1123.38 760.578 1124.09 762.843 1123.64 765.492C1122.76 770.652 1119.43 775.375 1115.31 778.423C1118.02 783.699 1123.96 792.91 1122.59 798.961L1120.58 800.22C1117.98 799.536 1117.49 799.711 1116.03 797.519ZM1104.81 757.853C1102.02 760.301 1101.77 762.538 1101.48 766.271C1101.27 768.889 1102.56 771.045 1103.98 773.118C1106.42 774.414 1108.44 773.926 1111.07 773.594C1113.23 771.155 1115.52 768.357 1115.17 764.86C1114.95 762.739 1114.04 761.169 1112.36 759.814C1110.38 758.215 1107.26 758.048 1104.81 757.853Z"/></svg>